<?xml version="1.0" encoding="UTF-8"?>
<!DOCTYPE svg PUBLIC "-//W3C//DTD SVG 1.1//EN" "http://www.w3.org/Graphics/SVG/1.1/DTD/svg11.dtd">
<svg xmlns="http://www.w3.org/2000/svg" version="1.1" width="600px" height="600px" style="shape-rendering:geometricPrecision; text-rendering:geometricPrecision; image-rendering:optimizeQuality; fill-rule:evenodd; clip-rule:evenodd" xmlns:xlink="http://www.w3.org/1999/xlink">
<g><path style="opacity:0.996" fill="#f4ab25" d="M 529.5,329.5 C 477.279,418.388 403.612,482.721 308.5,522.5C 220.205,523.773 151.039,488.439 101,416.5C 62.9557,353.126 56.9557,286.793 83,217.5C 114.982,145.861 169.149,100.695 245.5,82C 324.316,65.9546 394.649,83.288 456.5,134C 513.71,186.787 538.043,251.954 529.5,329.5 Z"/></g>
<g><path style="opacity:1" fill="#6b490c" d="M 375.5,136.5 C 372.054,137.687 368.387,138.354 364.5,138.5C 367.845,136.783 371.511,136.116 375.5,136.5 Z"/></g>
<g><path style="opacity:1" fill="#090501" d="M 375.5,136.5 C 417.075,133.625 446.575,150.958 464,188.5C 465.515,193.521 467.015,198.521 468.5,203.5C 469.773,212.836 469.773,222.169 468.5,231.5C 459.769,276.397 432.769,302.563 387.5,310C 370.69,311.309 354.69,308.309 339.5,301C 334.764,295.278 335.931,291.111 343,288.5C 384.355,305.6 418.355,296.266 445,260.5C 460.31,233.394 460.31,206.394 445,179.5C 426.518,154.999 402.018,145.166 371.5,150C 336.648,159.006 315.815,181.172 309,216.5C 307.639,228.6 308.805,240.433 312.5,252C 309.889,259.069 305.722,260.236 300,255.5C 290.438,223.104 296.105,193.771 317,167.5C 329.994,153.091 345.828,143.424 364.5,138.5C 368.387,138.354 372.054,137.687 375.5,136.5 Z"/></g>
<g><path style="opacity:1" fill="#0a0501" d="M 395.5,170.5 C 415.086,169.364 427.92,178.031 434,196.5C 436.841,216.631 428.674,229.798 409.5,236C 388.269,238.81 374.769,229.977 369,209.5C 367.412,189.324 376.246,176.324 395.5,170.5 Z"/></g>
<g><path style="opacity:1" fill="#010000" d="M 191.5,178.5 C 206.469,178.03 221.136,179.863 235.5,184C 244.616,191.348 247.783,200.848 245,212.5C 238.966,227.934 227.8,234.101 211.5,231C 198.45,224.759 192.116,214.259 192.5,199.5C 182.082,199.069 171.749,199.735 161.5,201.5C 152.737,198.177 151.404,193.01 157.5,186C 168.694,182.197 180.027,179.697 191.5,178.5 Z"/></g>
<g><path style="opacity:1" fill="#f3aa25" d="M 398.5,183.5 C 418.904,185.731 425.404,196.398 418,215.5C 407.652,225.804 396.986,226.137 386,216.5C 377.865,200.778 382.032,189.778 398.5,183.5 Z"/></g>
<g><path style="opacity:1" fill="#996a14" d="M 468.5,203.5 C 471.035,212.848 471.035,222.181 468.5,231.5C 469.773,222.169 469.773,212.836 468.5,203.5 Z"/></g>
<g><path style="opacity:1" fill="#070401" d="M 292.5,367.5 C 282.833,367.5 273.167,367.5 263.5,367.5C 263.5,378.833 263.5,390.167 263.5,401.5C 262.883,403.229 261.883,404.729 260.5,406C 250.172,406.5 239.839,406.666 229.5,406.5C 229.666,415.506 229.5,424.506 229,433.5C 227.457,435.378 225.624,436.878 223.5,438C 205.5,438.667 187.5,438.667 169.5,438C 167.93,436.603 166.596,435.103 165.5,433.5C 165.193,415.453 165.527,397.453 166.5,379.5C 203.938,343.23 241.272,306.73 278.5,270C 282.302,267.965 285.469,268.798 288,272.5C 288.667,274.5 288.667,276.5 288,278.5C 251.559,314.276 215.226,349.943 179,385.5C 178.5,398.829 178.333,412.163 178.5,425.5C 191.167,425.5 203.833,425.5 216.5,425.5C 216.181,415.584 216.514,405.75 217.5,396C 228.397,394.546 239.397,394.046 250.5,394.5C 250.333,382.495 250.5,370.495 251,358.5C 252.167,357.333 253.333,356.167 254.5,355C 266.167,354.667 277.833,354.333 289.5,354C 293,350.5 296.5,347 300,343.5C 300.333,333.5 300.667,323.5 301,313.5C 302.167,312.333 303.333,311.167 304.5,310C 310.833,309.333 317.167,309.333 323.5,310C 328.371,313.178 328.704,316.845 324.5,321C 320.974,322.337 317.308,322.837 313.5,322.5C 313.666,331.173 313.5,339.84 313,348.5C 306.597,355.407 299.764,361.74 292.5,367.5 Z"/></g>
<g><path style="opacity:0.971" fill="#f4a323" d="M 529.5,329.5 C 518.606,397.519 484.273,450.019 426.5,487C 390.33,509.222 350.996,521.056 308.5,522.5C 403.612,482.721 477.279,418.388 529.5,329.5 Z"/></g>
<g><path style="opacity:1" fill="#bb8224" d="M 292.5,367.5 C 283.348,368.494 274.015,368.827 264.5,368.5C 264.828,379.679 264.495,390.679 263.5,401.5C 263.5,390.167 263.5,378.833 263.5,367.5C 273.167,367.5 282.833,367.5 292.5,367.5 Z"/></g>
<g><path style="opacity:1" fill="#ae7917" d="M 166.5,379.5 C 165.527,397.453 165.193,415.453 165.5,433.5C 164.338,416.005 164.171,398.338 165,380.5C 165.383,379.944 165.883,379.611 166.5,379.5 Z"/></g>
<g><path style="opacity:1" fill="#010000" d="M 383.5,391.5 C 390.244,390.198 394.244,392.864 395.5,399.5C 393.367,415.445 385.034,426.611 370.5,433C 351.637,439.032 332.303,441.032 312.5,439C 305.792,438.711 299.125,438.045 292.5,437C 285.964,431.287 286.63,426.454 294.5,422.5C 314.235,421.404 333.901,419.57 353.5,417C 360.937,415.382 367.603,412.216 373.5,407.5C 377.287,402.395 380.62,397.061 383.5,391.5 Z"/></g>
</svg>
