<?xml version="1.0" standalone="no"?>
<!DOCTYPE svg PUBLIC "-//W3C//DTD SVG 20010904//EN"
 "http://www.w3.org/TR/2001/REC-SVG-20010904/DTD/svg10.dtd">
<svg version="1.0" xmlns="http://www.w3.org/2000/svg"
 width="979.000000pt" height="885.000000pt" viewBox="0 0 979.000000 885.000000"
 preserveAspectRatio="xMidYMid meet">
<metadata>
Created by potrace 1.16, written by Peter Selinger 2001-2019
</metadata>
<g transform="translate(0.000000,885.000000) scale(0.100000,-0.100000)"
fill="#000000" stroke="none">
<path d="M3400 8813 c66 -47 71 -59 25 -58 -36 2 -79 -20 -70 -35 3 -4 -3 -10
-13 -12 -10 -3 -26 -21 -35 -41 -29 -60 -66 -97 -96 -97 -40 0 -60 28 -69 99
-11 81 -42 110 -117 111 -27 0 -317 1 -644 1 -594 -1 -594 -1 -617 -22 -33
-31 -54 -102 -54 -180 0 -66 0 -67 -31 -78 -43 -15 -93 -14 -132 2 -32 14 -32
14 -35 91 -2 83 -18 129 -57 166 l-23 22 -629 -1 c-345 0 -635 -2 -644 -3 -56
-12 -79 -70 -79 -198 l0 -100 -40 0 c-33 0 -40 -3 -40 -20 0 -17 5 -19 24 -14
14 3 34 3 46 -1 17 -5 20 -12 15 -32 -11 -47 -6 -1179 6 -1206 24 -53 12 -52
705 -52 l643 1 25 23 c49 47 55 84 58 379 l3 273 25 19 c32 25 121 27 144 4
14 -13 16 -57 16 -327 0 -345 0 -346 63 -366 21 -7 240 -10 662 -8 592 2 633
3 659 20 34 22 60 81 52 118 -10 53 67 79 134 44 37 -19 50 -43 50 -93 0 -28
7 -45 26 -63 l26 -24 635 -3 c672 -4 705 -2 734 41 10 16 15 68 19 197 l5 175
82 0 c45 0 84 -3 88 -7 4 -3 6 -83 6 -176 -1 -233 -20 -215 241 -223 374 -11
1141 -5 1165 9 40 22 47 50 48 194 0 91 5 142 13 150 16 16 111 22 145 9 l27
-11 0 -146 0 -146 28 -27 c38 -39 65 -40 773 -37 568 3 608 4 637 21 56 34 56
29 49 616 -6 520 -5 539 13 549 24 13 167 13 175 0 3 -5 6 -253 5 -550 0 -468
2 -544 15 -570 31 -59 27 -59 435 -65 206 -4 389 -11 406 -16 36 -11 64 -40
88 -88 20 -43 21 -52 0 -23 -8 12 -21 22 -27 22 -7 0 -4 -5 6 -11 24 -14 21
-29 -5 -28 -13 0 -84 -3 -158 -6 -74 -4 -253 -7 -397 -8 -249 -2 -263 -3 -290
-23 -15 -12 -37 -36 -48 -55 -18 -31 -20 -56 -23 -319 -2 -157 -6 -288 -10
-292 -4 -4 -35 -8 -70 -9 -59 -2 -65 0 -87 27 -24 29 -24 31 -24 276 0 230 -2
251 -22 297 -11 27 -31 59 -43 70 -22 21 -26 21 -662 22 -666 1 -677 1 -717
-41 -36 -40 -39 -69 -41 -443 -2 -361 -3 -368 -24 -389 -16 -16 -37 -23 -81
-26 -58 -4 -61 -3 -71 22 -6 17 -10 159 -10 363 0 382 -7 451 -51 488 l-28 23
-641 1 c-540 1 -642 -1 -646 -13 -3 -8 -15 -17 -27 -20 -12 -3 -30 -19 -40
-36 -17 -29 -19 -75 -22 -711 l-3 -681 28 -32 28 -31 619 -3 c340 -2 642 0
671 3 64 8 89 29 97 82 13 85 15 88 75 91 30 2 69 1 86 -3 29 -5 32 -10 39
-53 10 -66 33 -100 75 -112 21 -6 289 -10 678 -10 588 0 646 1 673 17 31 19
49 58 49 109 0 61 4 64 94 64 50 0 87 -5 94 -12 7 -7 12 -31 12 -55 0 -52 16
-88 48 -109 22 -14 93 -16 666 -16 574 0 646 1 674 16 17 9 37 26 43 38 8 15
13 145 16 417 3 220 9 403 14 413 5 10 21 18 34 18 34 0 31 15 -5 30 -17 7
-35 21 -40 30 -6 10 -9 120 -8 252 2 331 7 324 -242 332 l-165 5 -52 56 c-29
30 -53 64 -53 75 0 19 7 20 226 20 l226 0 34 34 34 34 0 171 0 171 35 0 c33 0
35 2 35 35 0 25 -4 35 -15 35 -12 0 -14 -7 -9 -27 7 -27 7 -27 -17 -12 -24 16
-24 18 -26 200 0 101 -2 234 -4 294 l-3 110 37 18 c38 19 53 53 19 45 -36 -10
-50 14 -55 94 l-4 76 38 11 c37 11 39 14 39 54 l-1 42 -14 -32 c-17 -40 -29
-41 -51 -8 -13 20 -15 39 -11 83 8 77 -5 129 -43 166 l-30 31 -638 -3 c-600
-2 -638 -3 -662 -20 -45 -33 -60 -82 -66 -215 -4 -69 -11 -127 -18 -134 -13
-14 -111 -20 -144 -9 -33 11 -42 44 -42 152 0 75 -5 106 -21 145 -31 71 -58
83 -184 81 -115 -2 -156 8 -175 43 -16 30 -40 33 -40 5 0 -48 -14 -50 -495
-49 -285 0 -460 -3 -477 -10 -47 -18 -76 -76 -79 -156 -3 -73 -15 -115 -33
-116 -164 -10 -166 -8 -166 76 0 30 -5 77 -11 105 -9 42 -17 55 -48 76 l-38
24 -604 0 c-332 0 -615 -2 -629 -4 -14 -1 -35 -9 -46 -16 -24 -15 -64 -90 -64
-120 0 -41 -35 -60 -109 -60 -78 0 -86 6 -96 67 -4 24 -11 45 -16 49 -5 3 -9
14 -9 24 0 13 -14 27 -40 40 -40 20 -55 21 -608 21 l-567 0 -62 35 c-34 18
-71 34 -84 34 -18 0 -11 -8 31 -37z m-2432 -159 c42 -8 112 -32 155 -53 42
-21 77 -37 77 -35 0 2 -25 20 -55 40 -30 20 -55 37 -55 38 0 1 9 2 20 3 11 1
20 -2 20 -8 0 -5 10 -9 23 -9 13 0 17 3 10 8 -6 4 11 7 38 7 37 0 49 -4 49
-15 0 -13 1 -13 10 0 10 16 66 15 86 -1 6 -5 14 -6 17 -3 3 3 16 -4 28 -15 13
-12 29 -19 36 -17 8 3 13 -2 13 -12 0 -10 4 -22 9 -27 18 -20 31 -120 31 -243
l0 -127 -33 75 c-48 109 -110 202 -168 251 -77 66 -80 60 -7 -12 36 -35 78
-84 93 -109 29 -45 73 -147 81 -185 39 -183 22 -412 -34 -478 -8 -9 -12 -20
-9 -24 4 -4 -3 -18 -15 -31 -13 -14 -17 -22 -9 -17 7 4 3 -7 -10 -26 -29 -41
-150 -164 -162 -164 -5 0 -14 -8 -21 -17 -7 -10 -18 -18 -24 -18 -5 0 -13 -7
-16 -16 -4 -9 -9 -14 -13 -10 -3 3 -14 -1 -23 -9 -44 -40 -196 -77 -315 -77
-138 1 -151 4 -295 75 -109 54 -220 144 -250 204 -8 15 -18 30 -21 33 -3 3
-17 25 -31 50 -26 45 -45 110 -53 185 -3 22 -7 56 -10 75 -9 56 23 90 84 90
55 0 72 -13 65 -49 -8 -41 13 -146 42 -212 97 -216 298 -334 525 -309 292 33
492 283 451 565 -25 170 -109 308 -247 401 -102 70 -255 94 -381 61 -171 -44
-326 -204 -374 -385 -10 -39 -13 -42 -38 -36 -15 4 -28 8 -30 9 -2 2 -17 -1
-34 -6 -49 -14 -61 3 -54 76 9 85 19 122 51 188 51 104 192 236 300 282 130
55 319 70 473 39z m1589 1 c51 -8 116 -24 145 -35 29 -11 45 -14 35 -7 -55 36
-55 36 23 37 41 1 111 2 155 4 89 3 129 -6 163 -40 29 -28 32 -50 38 -274 6
-182 2 -196 -31 -105 -22 64 -95 183 -131 215 l-28 25 27 -35 c42 -54 98 -156
114 -208 21 -68 22 -312 1 -312 -5 0 -7 -4 -4 -9 8 -12 -32 -101 -45 -101 -6
0 -7 -4 -4 -10 3 -5 1 -10 -5 -10 -6 0 -15 -12 -20 -26 -6 -14 -13 -23 -17
-21 -5 3 -18 -11 -30 -29 -14 -21 -18 -34 -10 -34 7 -1 -1 -8 -16 -16 -15 -8
-25 -19 -22 -24 4 -6 2 -10 -4 -10 -5 0 -12 6 -14 13 -3 6 -6 0 -6 -14 -1 -20
-8 -28 -28 -34 -21 -5 -24 -8 -12 -16 12 -7 11 -9 -3 -9 -9 0 -33 -16 -52 -35
-20 -19 -41 -35 -46 -35 -6 0 -10 -5 -10 -11 0 -5 -5 -7 -10 -4 -13 8 -42 -14
-34 -26 3 -5 -7 -9 -21 -9 -14 0 -24 -4 -20 -9 3 -5 -3 -12 -12 -15 -28 -8
-136 -20 -160 -19 -13 1 -23 -3 -23 -9 0 -6 -11 -3 -25 6 -15 10 -25 12 -25 6
0 -13 -43 -2 -48 11 -2 5 -15 9 -29 9 -14 0 -32 8 -39 18 -8 10 -13 12 -14 5
0 -7 -5 -13 -11 -13 -5 0 -8 4 -4 9 3 5 0 13 -6 17 -6 3 -15 1 -19 -7 -7 -10
-11 -10 -25 1 -13 10 -13 15 -3 21 8 5 0 7 -19 4 -18 -2 -33 1 -33 6 0 5 -6 9
-13 9 -8 0 -28 16 -46 35 -17 19 -36 35 -42 35 -6 0 -8 4 -5 9 3 5 -6 20 -20
32 -15 13 -37 34 -50 45 -12 12 -26 19 -29 16 -3 -4 -3 1 0 10 4 11 0 18 -14
23 -12 3 -21 12 -21 19 0 6 -14 20 -30 30 -18 10 -30 25 -29 34 2 15 -5 36
-33 97 -5 11 -10 30 -11 43 0 12 -5 22 -10 22 -4 0 -6 4 -2 9 3 5 1 12 -4 15
-15 10 -5 205 14 266 28 92 90 194 144 238 8 6 10 12 4 12 -13 0 -80 -78 -116
-137 -15 -23 -38 -74 -51 -113 -13 -39 -26 -74 -30 -77 -3 -3 -4 68 -2 158 3
142 7 171 25 209 19 41 74 90 101 90 5 0 10 4 10 8 0 5 17 10 38 10 104 5 198
10 207 12 6 1 21 2 35 1 20 -1 11 -9 -45 -39 -73 -39 -125 -72 -112 -72 4 0
24 11 45 25 88 58 241 102 362 104 30 1 96 -6 147 -14z m1653 -11 c41 -8 83
-18 94 -21 12 -3 16 -1 12 6 -4 6 -19 11 -33 11 -43 0 -21 9 38 16 29 3 64 7
77 9 12 2 22 1 22 -3 0 -4 44 -8 98 -8 111 -2 141 -5 139 -15 -1 -4 2 -7 7 -7
5 0 21 -20 37 -44 l29 -43 -1 -205 -1 -205 -17 55 c-31 98 -87 193 -156 268
-37 40 -70 71 -73 68 -2 -3 10 -17 27 -32 47 -39 119 -137 145 -196 23 -54 33
-92 42 -163 2 -22 6 -56 9 -75 2 -19 -2 -60 -11 -90 -9 -30 -16 -61 -16 -67
-1 -7 -5 -13 -10 -13 -4 0 -8 -7 -8 -15 0 -9 -7 -18 -15 -21 -8 -4 -13 -10
-10 -14 3 -5 1 -11 -5 -15 -6 -4 -8 -11 -5 -16 4 -5 -1 -12 -9 -15 -9 -3 -16
-13 -16 -20 0 -8 -7 -17 -15 -20 -8 -4 -12 -10 -9 -15 3 -5 0 -9 -5 -9 -6 0
-11 -9 -11 -19 0 -11 -5 -23 -10 -26 -6 -4 -8 -11 -4 -16 3 -5 2 -8 -3 -7 -4
2 -18 -4 -31 -13 -16 -11 -20 -22 -16 -35 6 -18 5 -17 -9 1 -17 20 -17 20 -23
-2 -3 -13 -13 -23 -20 -23 -8 0 -14 -4 -14 -10 0 -5 -7 -10 -16 -10 -13 0 -14
-3 -5 -13 8 -10 4 -20 -19 -42 -20 -19 -30 -24 -30 -14 0 8 -3 10 -8 4 -4 -5
-20 -11 -36 -12 -31 -2 -43 -9 -33 -19 4 -4 13 -1 22 6 9 7 18 10 22 7 3 -4
-6 -12 -21 -18 -14 -7 -26 -16 -26 -21 0 -5 -4 -7 -9 -3 -5 3 -12 1 -16 -5 -9
-15 -27 -12 -20 3 4 6 -2 2 -13 -9 -15 -18 -26 -21 -65 -17 -32 4 -52 1 -64
-8 -9 -8 -14 -9 -10 -3 4 7 -5 11 -24 12 -29 1 -30 0 -13 -15 15 -12 13 -12
-8 1 -21 12 -28 13 -28 4 0 -10 -2 -10 -8 -1 -4 6 -25 14 -47 18 -22 4 -59 15
-82 26 -24 10 -45 19 -49 19 -3 0 -24 13 -47 29 -23 15 -49 26 -57 23 -8 -3
-12 -1 -8 3 4 4 -4 19 -18 32 -26 24 -40 30 -29 13 3 -5 1 -10 -4 -10 -6 0
-11 5 -11 11 0 5 -5 7 -11 3 -8 -4 -9 0 -4 15 5 16 2 21 -10 21 -19 0 -54 38
-55 58 0 7 -22 34 -48 60 -43 43 -78 96 -74 114 1 4 -6 4 -15 1 -13 -5 -15 -2
-10 19 4 14 1 33 -7 44 -7 10 -12 27 -10 37 1 9 -2 17 -8 17 -16 0 -3 225 17
288 25 81 81 169 154 240 36 36 56 60 45 54 -38 -20 -142 -140 -177 -204 -19
-35 -43 -88 -53 -118 l-19 -55 -3 60 c-2 33 -1 115 3 182 l7 123 37 41 c32 36
43 42 79 43 23 1 42 5 42 9 0 5 5 5 10 2 6 -3 10 -2 10 3 0 11 1 11 143 16
l118 4 -79 -38 c-44 -21 -83 -44 -87 -50 -4 -6 21 3 56 20 167 85 311 103 509
64z m1574 15 c44 -6 107 -21 140 -34 104 -39 104 -39 76 -16 -14 11 -31 21
-37 21 -7 0 -13 4 -13 9 0 13 310 9 330 -4 8 -5 18 -10 21 -10 8 0 42 -35 34
-35 -3 0 0 -10 6 -22 13 -24 15 -42 28 -248 5 -80 7 -149 4 -154 -3 -4 -19 27
-36 70 -35 91 -81 166 -127 209 -27 25 -25 20 11 -25 97 -120 145 -311 112
-439 -7 -29 -14 -64 -15 -76 -1 -13 -7 -21 -14 -18 -10 4 -22 -20 -20 -38 1
-4 -7 -16 -17 -27 -18 -20 -18 -21 5 -25 20 -4 19 -4 -6 -6 -21 -1 -27 -5 -22
-17 4 -11 2 -15 -8 -11 -10 4 -12 0 -9 -14 4 -13 0 -19 -11 -19 -9 0 -16 -8
-16 -20 0 -11 -4 -20 -10 -20 -5 0 -10 -7 -10 -15 0 -9 -6 -12 -15 -9 -9 4
-15 0 -15 -10 0 -9 -4 -16 -9 -16 -5 0 -13 -9 -16 -20 -4 -13 -15 -20 -31 -20
-13 0 -24 -4 -24 -10 0 -5 -5 -10 -11 -10 -14 0 -39 -26 -39 -41 0 -10 -3 -10
-12 -1 -13 13 -32 17 -24 4 2 -4 -2 -16 -10 -27 -8 -10 -14 -15 -14 -11 0 5
-12 1 -26 -9 -14 -9 -33 -14 -42 -10 -8 3 -19 0 -23 -7 -4 -6 -24 -12 -43 -11
-20 1 -36 -3 -36 -9 0 -5 -8 -17 -17 -26 -16 -16 -16 -16 -11 3 4 15 0 21 -14
22 -10 1 -16 -2 -13 -8 4 -5 -13 -10 -37 -10 -24 -1 -52 -3 -63 -3 -11 -1 -33
5 -49 12 -16 8 -25 9 -22 3 12 -18 -3 -12 -26 11 -14 14 -23 18 -26 10 -2 -7
-9 -12 -15 -12 -8 0 -7 4 1 12 17 17 15 31 -3 24 -8 -3 -14 -2 -14 2 3 19 -2
25 -11 12 -7 -10 -12 -11 -17 -4 -13 18 -40 23 -53 11 -10 -9 -11 -9 -6 0 9
17 -9 50 -18 34 -5 -7 -18 -1 -39 19 -18 16 -40 30 -49 30 -10 0 -24 13 -32
28 -16 32 -46 60 -46 44 0 -5 7 -13 16 -16 9 -4 14 -9 10 -13 -8 -9 -47 28
-40 38 5 8 -18 14 -39 10 -5 -1 -11 8 -14 19 -3 11 -9 20 -14 20 -5 0 -9 4 -9
10 0 5 -11 26 -25 46 -14 21 -23 44 -20 51 2 8 1 11 -4 8 -9 -5 -27 32 -23 48
1 4 -3 7 -9 7 -5 0 -8 4 -5 8 3 5 1 24 -3 43 -19 73 -21 100 -8 93 9 -6 9 -5
0 7 -18 23 10 158 51 246 30 61 78 136 106 163 3 3 16 19 29 35 13 17 -3 2
-36 -31 -66 -68 -112 -141 -154 -248 l-28 -71 -1 190 c0 199 6 241 37 272 33
33 52 36 243 38 139 3 179 1 160 -8 -70 -30 -90 -40 -87 -43 1 -2 34 9 72 23
127 47 240 60 369 42z m1704 -5 c42 -9 111 -31 152 -50 41 -19 66 -27 55 -18
-11 9 -40 25 -65 36 -53 23 -40 40 22 27 21 -5 44 -6 50 -3 15 9 119 5 157 -6
16 -4 31 -5 33 0 2 4 14 3 28 -3 14 -5 31 -11 39 -13 8 -1 18 -9 22 -16 5 -7
9 -8 9 -3 1 21 31 -61 36 -99 10 -76 21 -201 18 -216 -1 -8 -3 -43 -3 -77 -1
-67 -14 -84 -25 -30 -8 42 -99 225 -128 257 -13 14 -36 34 -53 44 -23 14 -18
7 18 -30 103 -104 170 -305 147 -439 -5 -27 -12 -63 -15 -80 -13 -75 -21 -90
-46 -87 -18 2 -20 0 -10 -6 11 -8 9 -15 -13 -38 -14 -16 -24 -35 -21 -41 2 -7
-3 -13 -13 -13 -15 0 -15 -2 -2 -10 13 -8 12 -10 -2 -10 -21 0 -24 -16 -5 -23
6 -3 2 -6 -11 -6 -13 -1 -20 -5 -17 -11 3 -5 -3 -10 -15 -10 -12 0 -19 -4 -16
-9 3 -4 -3 -16 -14 -26 -11 -10 -20 -15 -20 -11 0 4 -7 1 -15 -8 -18 -18 -19
-42 -2 -50 6 -3 2 -3 -11 0 -27 7 -43 -3 -130 -77 -7 -6 -21 -8 -30 -4 -9 3
-13 3 -10 -1 11 -11 -41 -47 -58 -40 -8 3 -13 2 -10 -2 5 -9 -85 -40 -114 -40
-8 0 -30 -5 -47 -10 -27 -9 -35 -8 -43 6 -5 9 -10 12 -10 6 0 -6 -7 -11 -15
-11 -8 0 -12 4 -10 8 6 9 -50 29 -81 29 -13 0 -26 5 -29 11 -4 6 -20 8 -38 4
-24 -5 -28 -4 -17 4 13 10 13 11 0 12 -8 1 -19 1 -24 0 -4 -1 -14 3 -20 9 -7
5 -15 8 -18 5 -2 -3 -26 15 -51 40 -26 25 -47 42 -47 38 0 -4 -7 2 -15 13 -9
12 -14 14 -15 6 0 -7 -5 -10 -11 -7 -6 4 -8 13 -5 21 3 9 0 11 -11 7 -12 -5
-14 -3 -8 7 5 8 4 11 -3 7 -10 -7 -62 46 -62 62 0 4 -11 14 -25 21 -13 7 -22
17 -19 22 3 4 -2 11 -11 14 -9 4 -14 12 -11 19 2 7 -7 23 -20 36 -14 13 -23
28 -20 35 3 7 -5 15 -17 18 -17 5 -19 8 -8 15 14 9 7 51 -10 51 -5 0 -9 16 -9
35 0 19 -4 35 -10 35 -6 0 -9 38 -6 103 5 125 35 219 103 317 16 23 16 24 1
12 -25 -20 -68 -96 -100 -177 l-27 -70 -2 45 c-4 166 3 284 21 323 23 53 67
94 106 98 16 2 31 7 34 11 3 3 43 7 90 7 147 1 153 1 177 5 13 3 23 3 23 1 0
-2 -34 -22 -75 -44 -41 -23 -75 -43 -75 -46 0 -2 33 12 74 31 141 67 330 90
484 58z m1737 -13 c39 -12 78 -26 88 -31 9 -6 17 -6 17 -2 0 5 -15 16 -32 25
-25 13 -27 15 -8 10 28 -7 103 -6 134 3 17 4 18 3 6 -5 -12 -8 -8 -11 18 -11
24 0 31 3 26 13 -6 9 -4 9 7 1 8 -6 26 -9 42 -8 15 2 27 -1 27 -6 0 -5 6 -7
14 -4 23 9 72 -23 84 -53 13 -35 20 -95 27 -248 4 -97 3 -115 -7 -95 -6 14
-25 54 -42 90 -30 62 -137 189 -179 211 -10 6 10 -18 45 -53 35 -34 77 -85 92
-113 39 -70 77 -190 81 -257 4 -63 -15 -190 -38 -253 -34 -91 -52 -130 -64
-138 -8 -5 -11 -12 -8 -18 4 -5 -3 -21 -14 -35 -12 -15 -21 -33 -21 -40 0 -8
-4 -14 -10 -14 -5 0 -12 -11 -16 -25 -3 -13 -34 -50 -69 -82 -90 -82 -94 -85
-107 -77 -7 4 -8 3 -4 -4 4 -7 2 -12 -4 -12 -7 0 -24 -8 -38 -18 -34 -22 -101
-46 -109 -38 -4 3 -14 -1 -24 -10 -11 -10 -28 -14 -48 -11 -17 3 -31 2 -31 -2
0 -23 -274 13 -304 40 -6 5 -17 9 -26 9 -10 0 -35 12 -56 28 -21 15 -51 33
-66 41 -32 16 -68 48 -68 60 0 4 -19 28 -42 52 -24 25 -52 62 -63 83 -11 21
-25 41 -32 43 -7 3 -13 13 -13 23 0 9 -7 31 -16 48 -8 17 -17 44 -20 59 -3 16
-8 37 -11 48 -13 41 -15 52 -15 150 -1 169 43 301 142 422 85 105 196 174 342
213 101 28 311 23 413 -9z m-8737 6 c6 3 12 0 12 -7 0 -6 -4 -9 -9 -6 -5 3
-14 -1 -21 -9 -7 -8 -19 -15 -26 -15 -8 0 -14 -4 -14 -10 0 -5 -5 -10 -11 -10
-11 0 -76 -49 -118 -90 -52 -49 -108 -129 -141 -198 -18 -39 -36 -69 -40 -67
-8 5 -4 152 6 245 4 36 7 68 6 73 -1 4 5 7 13 7 8 0 14 3 14 8 -4 21 2 43 10
38 4 -3 13 5 19 19 13 29 49 33 192 24 52 -4 101 -4 108 -2z m8220 -10 c-7 -7
-35 -23 -62 -37 -67 -35 -197 -158 -244 -233 -22 -34 -49 -93 -62 -132 -13
-38 -27 -74 -32 -80 -10 -12 -4 292 8 344 9 44 86 119 130 127 38 7 158 18
227 21 38 2 45 0 35 -10z m-5378 -651 c0 -356 -4 -576 -11 -587 -18 -35 -149
-21 -163 17 -5 12 -8 496 -6 972 l0 132 34 0 c19 0 53 9 77 20 24 11 50 19 57
17 11 -2 13 -104 12 -571z m1608 538 l23 -6 -6 -447 c-4 -272 -10 -450 -16
-456 -14 -14 -119 -12 -145 3 -21 11 -21 18 -28 447 -5 240 -5 439 -2 442 16
16 134 27 174 17z m-3233 -74 c9 -14 9 -458 1 -497 -11 -46 -60 -62 -122 -38
-24 9 -50 26 -56 38 -8 14 -13 99 -16 245 -5 271 -9 262 109 262 43 0 81 -5
84 -10z m4887 -430 c-3 -393 -5 -436 -20 -448 -21 -17 -129 -10 -147 10 -10
10 -14 118 -20 440 -6 406 -5 427 12 431 10 3 54 4 98 4 l80 -2 -3 -435z
m-5639 359 c79 -32 162 -101 214 -177 55 -81 67 -126 66 -247 0 -133 -24 -198
-102 -277 -32 -33 -74 -64 -98 -73 -24 -9 -43 -21 -43 -26 0 -5 -13 -9 -28 -9
-15 0 -33 -5 -39 -11 -6 -6 -51 -14 -100 -16 -173 -10 -314 59 -402 196 -43
66 -61 133 -61 222 0 209 114 363 325 435 60 21 196 12 268 -17z m7420 -862
c12 -15 52 -60 89 -100 l66 -72 -40 -5 c-38 -5 -39 -6 -22 -21 19 -17 78 -49
89 -49 3 0 9 9 13 20 l8 21 21 -21 c12 -11 25 -20 28 -20 4 0 20 -13 37 -30
16 -16 37 -30 46 -30 14 0 15 -2 1 -15 -14 -14 -135 -21 -307 -16 l-53 1 -21
47 c-18 40 -20 66 -20 182 1 75 1 147 2 161 l1 25 20 -25 c11 -14 30 -38 42
-53z m-8222 18 c5 4 9 -2 9 -11 0 -9 11 -31 24 -48 37 -49 106 -120 106 -111
0 5 6 0 14 -10 8 -11 12 -23 10 -27 -3 -5 2 -8 11 -8 8 0 18 -7 21 -15 3 -8
21 -24 40 -36 19 -11 32 -25 28 -30 -3 -5 1 -9 10 -9 8 0 16 -6 18 -12 8 -23
-24 -43 -69 -43 -46 -1 -175 11 -208 19 -35 9 -45 51 -45 190 0 124 9 205 18
163 2 -9 8 -15 13 -12z m1637 -2 c-3 -8 37 -63 80 -111 12 -14 22 -29 22 -34
0 -4 27 -34 60 -65 33 -32 60 -64 60 -71 0 -8 6 -12 14 -9 10 4 13 1 9 -9 -3
-9 0 -14 7 -12 7 2 15 -3 17 -9 3 -7 -2 -13 -11 -13 -8 0 -18 -5 -22 -12 -4
-6 -3 -8 4 -4 6 3 14 2 17 -4 11 -17 -195 -11 -222 7 -13 7 -23 10 -23 7 0 -4
-11 5 -24 21 -29 34 -34 69 -30 200 3 125 2 117 14 110 6 -3 10 -1 10 4 0 6 5
11 10 11 6 0 9 -3 8 -7z m1606 -24 c-2 -3 8 -11 22 -18 14 -6 24 -16 22 -23
-2 -6 5 -21 16 -34 12 -13 32 -37 46 -53 14 -17 34 -33 45 -36 38 -10 -12 -28
-59 -21 -33 5 -46 3 -56 -9 -7 -8 -11 -17 -9 -20 3 -2 37 1 76 7 70 10 71 10
103 -18 67 -59 80 -73 80 -83 0 -20 -68 -32 -142 -26 -40 4 -81 7 -91 8 -10 1
-33 14 -50 30 l-32 28 -1 135 c-1 74 2 134 7 134 5 0 5 8 2 17 -6 15 -5 16 9
3 9 -8 14 -18 12 -21z m1328 9 c16 -31 20 -182 6 -241 -14 -56 -41 -82 -102
-98 -37 -10 -133 -8 -181 4 -11 3 -28 6 -38 6 -12 1 -15 5 -10 14 4 6 8 17 8
22 0 6 10 14 23 20 12 5 22 15 22 22 0 19 8 16 42 -12 18 -16 42 -25 61 -25
l32 1 -30 13 c-17 7 -39 21 -48 31 -17 16 -16 18 8 41 14 12 25 28 25 34 0 6
4 9 9 6 5 -3 26 16 47 42 20 26 55 64 76 84 22 21 37 42 33 48 -3 5 -4 10 -1
10 3 0 11 -10 18 -22z m328 -27 c14 -14 24 -29 23 -33 -2 -5 1 -8 6 -8 5 0 23
-21 40 -47 17 -27 49 -64 71 -83 23 -19 52 -43 64 -55 13 -11 33 -28 46 -38
21 -18 21 -19 3 -32 -26 -20 -209 -13 -257 10 -31 15 -36 23 -46 72 -7 30 -10
101 -8 158 3 113 3 112 58 56z m1624 34 c-4 -8 -1 -15 5 -15 6 0 11 -5 11 -11
0 -6 11 -20 25 -31 14 -11 25 -28 25 -39 0 -10 6 -19 13 -20 6 0 -1 -6 -17
-13 l-29 -13 35 -12 c20 -6 44 -21 53 -31 10 -11 24 -20 30 -20 7 0 15 -6 18
-12 2 -7 30 -26 61 -42 66 -34 89 -56 60 -56 -15 0 -16 -2 -5 -9 12 -8 9 -11
-11 -16 -15 -4 -32 -4 -37 0 -6 3 -11 3 -11 -2 0 -4 -45 -7 -100 -5 -93 3
-102 5 -129 30 -39 37 -41 49 -42 186 0 103 2 122 17 133 24 17 35 16 28 -2z
m-317 -17 c6 -7 11 -42 12 -78 1 -36 3 -72 3 -80 5 -72 -3 -94 -48 -137 l-46
-44 -96 2 c-64 1 -104 7 -119 16 l-21 14 29 43 c15 24 36 49 44 56 21 17 99
15 153 -4 l42 -15 0 49 c0 56 -6 59 -63 35 -20 -8 -39 -15 -42 -15 -8 0 11 35
28 52 7 7 25 30 38 50 14 21 29 35 32 31 4 -3 7 1 7 10 0 13 12 24 31 26 4 1
11 -5 16 -11z m1669 -25 c12 -58 8 -209 -5 -241 -21 -50 -55 -61 -185 -63 -74
-2 -121 2 -128 9 -15 15 -2 43 17 36 10 -4 15 0 15 13 0 16 40 63 54 63 2 0 7
-11 10 -24 11 -43 78 -46 91 -4 10 28 -9 43 -55 43 l-39 0 37 30 c20 16 43 39
52 49 8 10 30 34 48 53 17 19 32 37 32 40 0 7 33 32 42 33 4 0 10 -17 14 -37z
m1647 -35 c4 -12 5 -59 3 -104 -4 -91 -20 -126 -68 -143 -16 -6 -28 -7 -28 -4
0 3 -6 1 -13 -5 -14 -12 -139 -9 -169 3 -15 6 -15 9 7 31 13 13 27 24 30 24 5
0 117 103 138 129 42 48 83 91 88 91 4 0 9 -10 12 -22z m-6646 -69 c73 -31 85
-46 78 -94 -14 -80 -62 -106 -200 -107 -104 0 -122 3 -121 22 1 12 179 197
193 200 1 0 23 -9 50 -21z m-1629 -13 c71 -36 78 -48 63 -103 -17 -68 -40 -83
-125 -85 -39 0 -78 -1 -86 0 -8 0 -35 2 -60 3 -25 2 -48 7 -52 13 -3 5 15 31
42 58 26 26 46 48 43 48 -3 0 16 20 41 45 26 25 56 45 67 45 11 0 41 -11 67
-24z m6262 -490 c118 7 279 1 272 -10 -3 -5 2 -7 11 -3 10 3 17 2 17 -3 0 -5
6 -7 14 -4 23 9 55 -35 62 -85 4 -25 8 -54 10 -64 3 -16 6 -191 5 -264 -1 -54
-16 -37 -28 30 -12 69 -51 157 -90 203 l-25 29 19 -30 c34 -53 54 -104 65
-166 22 -124 -32 -302 -119 -396 -22 -24 -38 -44 -37 -46 2 -2 -24 -30 -57
-63 -34 -32 -98 -95 -143 -139 -93 -90 -152 -143 -186 -165 -13 -8 -32 -25
-43 -38 -14 -15 -27 -20 -40 -16 -14 4 -17 3 -12 -6 5 -9 4 -11 -3 -6 -7 4
-12 1 -12 -6 0 -8 -3 -9 -8 -3 -4 6 -27 26 -52 45 -74 57 -293 243 -325 276
-37 39 -146 158 -160 176 -27 34 -73 117 -85 153 -8 22 -16 47 -19 55 -3 8 -5
65 -6 125 0 103 2 113 29 163 16 29 45 71 65 95 28 33 29 37 7 17 -72 -65
-123 -178 -141 -313 -11 -89 -12 -90 -17 -42 -9 92 -1 338 13 385 13 44 65
104 81 94 4 -3 8 -1 8 4 0 4 26 10 58 13 65 4 455 3 615 -2 65 -3 109 0 111 6
3 6 8 4 14 -4 7 -10 14 -11 31 -2 12 7 26 9 31 6 5 -3 12 0 16 6 3 6 9 7 13 2
3 -5 22 -8 41 -7z m1585 -16 c109 -35 180 -75 248 -143 77 -75 128 -171 130
-243 2 -46 0 -49 -23 -50 -45 -2 -45 -4 0 -26 50 -25 57 -48 39 -121 -6 -21
-12 -50 -14 -65 -17 -103 -32 -147 -62 -180 -7 -7 -13 -17 -13 -21 0 -14 -71
-86 -82 -83 -5 1 -7 -2 -3 -8 3 -5 1 -10 -5 -10 -6 0 -8 -5 -4 -11 4 -7 1 -10
-7 -7 -8 3 -18 -4 -24 -15 -5 -11 -21 -22 -35 -24 -13 -2 -37 -19 -53 -38 -21
-26 -34 -34 -52 -31 -17 3 -22 1 -18 -10 3 -9 -1 -14 -12 -14 -9 0 -30 -9 -46
-21 -20 -14 -38 -19 -54 -15 -14 4 -25 2 -25 -3 0 -5 -9 -11 -21 -14 -17 -4
-18 -3 -8 9 10 12 9 13 -5 8 -9 -3 -16 -11 -16 -18 0 -6 -5 -4 -10 4 -9 13
-12 13 -21 -3 -10 -18 -12 -18 -32 0 -19 16 -20 16 -8 1 15 -20 2 -25 -17 -6
-9 9 -12 8 -12 -7 -1 -19 -1 -19 -11 -2 -8 13 -21 18 -47 17 -56 -3 -64 -1
-56 11 5 8 -1 10 -20 7 -14 -3 -26 -1 -26 3 0 5 -8 9 -18 9 -10 0 -28 9 -40
20 -12 11 -28 20 -36 20 -31 0 -97 42 -91 57 3 10 1 13 -9 10 -8 -3 -17 0 -20
8 -3 8 -13 11 -25 8 -12 -3 -21 -1 -21 6 0 6 5 11 11 11 5 0 7 5 3 12 -6 9 -9
9 -12 0 -2 -7 -8 -12 -14 -12 -6 0 -8 6 -5 14 4 9 -3 16 -19 20 -13 4 -24 11
-24 16 0 6 -8 18 -17 28 -32 34 -53 62 -46 62 3 0 -3 10 -15 23 -11 12 -24 36
-28 52 -4 17 -12 33 -18 37 -8 6 -8 8 1 8 6 0 9 9 6 20 -3 11 -10 20 -15 20
-5 0 -6 5 -3 10 3 6 2 10 -4 10 -12 0 -13 20 -13 143 1 145 59 277 166 375 26
24 45 47 42 50 -11 10 -116 -100 -152 -160 -35 -57 -83 -183 -85 -222 -1 -18
-2 -17 -8 4 -4 14 -6 97 -4 185 4 150 6 164 31 214 15 30 34 58 42 61 8 4 24
12 36 17 25 13 304 15 304 3 0 -5 -28 -23 -62 -40 -35 -17 -70 -38 -78 -47 -8
-8 10 -1 40 16 128 70 229 92 415 86 107 -3 156 -9 210 -25z m-4049 7 c4 8 13
9 27 4 12 -4 33 -6 47 -4 14 2 54 3 90 2 178 -2 533 -2 675 -1 287 3 299 -1
322 -88 17 -64 33 -393 20 -407 -3 -2 -9 17 -12 44 -15 110 -79 273 -107 273
-4 0 4 -16 17 -36 14 -20 30 -55 37 -78 16 -58 14 -276 -3 -276 -3 0 -14 -26
-24 -57 -33 -104 -127 -217 -340 -410 -115 -104 -124 -111 -192 -160 -67 -47
-84 -49 -127 -13 -11 10 -52 45 -91 77 -38 32 -81 67 -94 78 -63 53 -221 217
-261 270 -72 96 -128 219 -133 290 -12 183 52 327 173 390 33 17 41 28 13 18
-26 -9 -83 -53 -115 -88 -65 -72 -108 -206 -108 -342 0 -48 -5 -85 -11 -89 -6
-3 -10 1 -9 12 1 11 1 21 0 24 -9 23 -9 214 0 322 7 73 13 141 13 151 1 9 5
17 10 17 5 0 7 6 4 13 -8 21 19 48 57 57 20 4 36 5 36 1 0 -4 14 -6 30 -3 17
2 30 9 30 16 0 6 5 4 11 -4 8 -11 12 -12 15 -3z m4426 -17 c26 -12 34 -37 43
-130 0 -9 3 -20 6 -25 10 -18 10 -235 0 -235 -5 0 -15 17 -21 38 -32 101 -105
198 -211 281 -32 24 -121 71 -136 71 -6 0 -15 5 -19 12 -10 15 301 5 338 -12z
m-1363 -594 c8 -5 11 -90 11 -276 0 -267 0 -269 -22 -284 -12 -9 -42 -16 -66
-16 -35 0 -49 6 -74 30 l-30 30 4 255 c2 213 5 257 18 265 16 10 141 7 159 -4z
m-1609 -86 c0 -10 4 -21 9 -24 4 -3 6 -18 3 -32 -4 -23 -2 -26 12 -21 10 4 15
3 11 -3 -7 -11 23 -80 35 -80 5 0 12 -10 16 -22 4 -13 10 -25 13 -28 4 -3 25
-27 46 -55 22 -27 48 -57 57 -66 10 -9 15 -19 11 -23 -3 -3 0 -6 7 -6 14 0
140 -125 180 -178 14 -19 30 -39 35 -45 25 -27 57 -89 50 -95 -4 -4 -100 -6
-215 -6 -232 2 -239 4 -277 72 -20 35 -22 52 -23 289 -1 235 1 252 16 246 17
-6 17 -5 1 17 -9 14 -17 29 -17 35 0 5 5 3 10 -5 7 -11 9 -5 6 23 -3 21 -1 35
5 32 5 -4 9 -15 9 -25z m-1620 -67 c0 -7 14 -39 32 -70 18 -31 31 -67 30 -80
-2 -24 25 -63 43 -63 10 0 211 -201 328 -327 43 -47 41 -69 -6 -76 -58 -9
-371 -1 -407 10 -19 6 -31 11 -26 12 5 1 -1 10 -13 20 -22 19 -22 22 -22 304
1 157 4 293 8 302 6 17 7 17 20 -1 7 -10 13 -24 13 -31z m3017 -220 c-3 -165
-8 -272 -16 -296 -16 -49 -61 -94 -103 -102 -43 -8 -394 -2 -403 7 -15 14 9
48 88 127 45 45 89 86 97 91 8 5 15 13 15 18 0 5 25 31 55 58 30 27 56 51 58
54 1 3 35 4 75 2 56 -3 69 -1 60 8 -7 7 -31 11 -62 9 -54 -4 -60 0 -36 24 8 8
11 17 8 21 -4 3 -1 6 6 6 7 0 9 5 6 10 -4 6 -1 9 7 8 7 -2 14 7 16 20 2 12 8
20 13 17 5 -4 9 -1 9 5 0 6 9 20 20 32 11 12 20 28 20 35 0 7 3 13 8 13 4 0
13 15 21 33 14 32 30 57 37 57 2 0 2 -116 1 -257z m-1676 220 c1 -10 2 -128 2
-263 1 -267 -5 -308 -51 -338 -22 -14 -57 -17 -243 -18 -254 -2 -259 0 -184
75 142 143 246 254 261 276 9 13 20 22 25 19 5 -3 9 2 9 10 0 8 6 19 13 23 15
10 87 99 105 130 6 13 12 30 12 38 0 8 5 15 12 15 6 0 8 3 5 6 -8 8 11 44 23
44 5 0 10 -8 11 -17z m188 -44 l31 -11 0 -178 c0 -114 -4 -181 -10 -185 -6 -4
-37 -8 -70 -10 -96 -6 -98 -3 -105 197 l-5 167 27 15 c33 18 88 20 132 5z
m1789 -192 c12 -13 19 -27 15 -30 -3 -4 -2 -7 4 -7 6 0 14 -10 17 -22 3 -13
21 -41 40 -62 19 -22 33 -43 30 -47 -2 -4 -18 -10 -34 -14 -32 -7 -45 -19 -36
-34 3 -5 24 0 46 11 39 20 78 18 65 -2 -3 -5 -2 -10 3 -10 6 0 44 -35 87 -77
91 -92 89 -96 -59 -94 -115 2 -121 3 -158 21 -48 23 -61 69 -64 224 -3 176 1
189 44 143z m1328 -177 c-5 -107 -13 -150 -28 -150 -5 0 -7 -4 -4 -8 3 -5 -9
-17 -27 -28 -26 -15 -51 -19 -139 -19 -76 0 -108 3 -108 12 0 12 171 189 180
186 3 -1 18 23 34 53 19 36 35 54 47 54 11 0 19 5 19 11 0 8 5 7 15 -1 13 -11
15 -31 11 -110z"/>
<path d="M2085 8285 c-72 -25 -118 -98 -99 -154 12 -33 49 -39 77 -13 40 36
67 44 140 40 l72 -3 3 31 c4 37 -29 81 -74 100 -41 17 -68 17 -119 -1z"/>
<path d="M2655 8291 c-31 -13 -55 -46 -61 -82 -8 -54 6 -66 59 -52 57 16 100
4 144 -39 l33 -32 25 24 c31 29 32 60 3 111 -35 63 -135 97 -203 70z"/>
<path d="M2015 7936 c-23 -24 -26 -32 -20 -68 20 -117 71 -214 147 -283 155
-140 380 -153 545 -32 71 53 113 104 152 186 48 101 52 189 11 211 -16 8 -29
3 -67 -26 -26 -21 -82 -53 -123 -72 -68 -32 -86 -36 -184 -40 -66 -3 -130 0
-165 7 -58 13 -162 61 -196 91 -11 9 -32 25 -47 35 -26 16 -28 16 -53 -9z"/>
<path d="M3695 8184 c-16 -8 -45 -29 -62 -47 -26 -24 -33 -39 -33 -69 0 -45 8
-46 59 -12 50 33 108 40 177 24 49 -12 56 -12 74 5 26 24 25 47 -4 74 -43 40
-156 54 -211 25z"/>
<path d="M4212 8178 c-51 -24 -67 -49 -52 -78 14 -26 52 -35 91 -21 52 18 101
12 163 -19 32 -16 62 -27 67 -24 5 3 9 18 9 34 0 36 -51 97 -97 116 -48 20
-131 17 -181 -8z"/>
<path d="M4411 7894 c-94 -58 -235 -94 -372 -94 -120 0 -245 31 -369 91 -72
35 -86 36 -101 8 -26 -49 31 -185 114 -275 102 -111 231 -160 395 -152 80 4
99 8 169 43 102 50 177 125 226 225 45 93 56 150 32 173 -22 23 -31 21 -94
-19z"/>
<path d="M5988 8311 l-32 -28 -34 23 c-40 28 -71 30 -111 9 -39 -19 -55 -64
-48 -130 6 -62 39 -123 102 -193 l43 -47 37 21 c164 94 240 205 202 296 -17
40 -67 78 -104 78 -13 0 -37 -13 -55 -29z"/>
<path d="M5268 8314 c-32 -17 -58 -61 -58 -97 0 -36 28 -97 66 -143 37 -45
167 -129 189 -120 18 7 92 101 116 148 45 89 32 180 -31 213 -41 21 -75 19
-107 -9 l-28 -24 -28 24 c-33 28 -78 31 -119 8z"/>
<path d="M5609 7895 c-32 -18 -57 -71 -43 -94 6 -9 32 -27 59 -40 53 -27 55
-22 -20 -74 -14 -11 -33 -34 -42 -52 -55 -114 142 -189 224 -85 24 30 15 76
-21 108 -19 16 -40 32 -48 35 -13 6 -1 20 57 60 67 47 -12 158 -112 157 -15
-1 -40 -7 -54 -15z"/>
<path d="M6965 8406 c-58 -25 -95 -93 -95 -171 0 -52 14 -58 50 -20 29 30 82
49 118 40 15 -3 46 -20 70 -36 l42 -30 10 26 c6 16 7 41 1 63 -25 116 -106
168 -196 128z"/>
<path d="M7574 8410 c-31 -12 -72 -65 -84 -108 -11 -41 -13 -95 -4 -105 3 -3
31 8 61 25 68 38 132 36 188 -6 30 -23 36 -25 41 -11 9 24 -4 92 -26 136 -32
62 -114 94 -176 69z"/>
<path d="M6845 7950 c-26 -29 -14 -97 34 -195 66 -134 182 -229 323 -266 121
-32 214 -22 336 36 103 49 186 134 241 246 46 96 53 155 23 182 -27 24 -52 21
-107 -14 -111 -70 -231 -100 -390 -95 -135 4 -215 24 -322 82 -93 49 -112 53
-138 24z"/>
<path d="M8975 8503 c-163 -28 -239 -67 -335 -170 -112 -120 -146 -215 -138
-387 4 -78 11 -116 31 -165 81 -200 253 -315 472 -314 242 0 442 164 486 399
14 71 5 214 -16 273 -41 118 -159 258 -260 308 -74 37 -192 65 -240 56z m167
-122 c130 -45 231 -148 270 -274 17 -56 20 -87 16 -161 -4 -81 -10 -103 -42
-169 -59 -123 -195 -227 -301 -229 -25 0 -48 -4 -51 -9 -9 -15 -71 -10 -84 6
-7 8 -27 15 -44 15 -54 0 -176 67 -230 125 -95 103 -130 238 -100 382 17 86
57 155 125 217 124 116 286 151 441 97z"/>
<path d="M8724 7849 c-10 -18 50 -91 107 -131 98 -67 198 -75 301 -25 61 30
148 112 148 139 0 31 -20 30 -49 -1 -50 -53 -133 -84 -226 -85 -98 -1 -141 13
-211 70 -59 48 -60 49 -70 33z"/>
<path d="M490 7880 c-23 -14 59 -92 134 -126 54 -25 73 -28 166 -29 128 0 206
26 282 94 44 40 48 46 34 59 -14 14 -18 14 -38 -5 -65 -59 -187 -103 -284
-103 -79 0 -174 33 -227 80 -51 45 -47 43 -67 30z"/>
<path d="M6982 6625 c-65 -28 -92 -90 -72 -165 13 -47 116 -179 141 -180 3 0
32 36 64 81 50 69 59 89 63 133 4 48 1 56 -28 89 -29 33 -80 57 -120 57 -8 -1
-30 -7 -48 -15z"/>
<path d="M7597 6629 c-53 -9 -89 -38 -106 -86 -21 -58 -4 -105 70 -198 l60
-76 55 67 c88 107 109 166 80 222 -30 58 -87 84 -159 71z"/>
<path d="M8695 6632 c-59 -20 -95 -71 -95 -134 0 -164 136 -214 221 -80 44 70
37 145 -19 195 -22 20 -76 30 -107 19z"/>
<path d="M9223 6625 c-64 -28 -88 -104 -55 -176 51 -109 129 -141 191 -79 74
75 64 207 -20 252 -40 21 -72 22 -116 3z"/>
<path d="M8602 6218 c-30 -30 3 -97 94 -190 178 -181 450 -182 630 -2 66 66
126 158 117 180 -3 8 -18 14 -34 14 -22 0 -32 -7 -45 -32 -45 -90 -163 -168
-281 -188 -159 -26 -322 41 -401 164 -25 40 -50 66 -62 66 -3 0 -11 -5 -18
-12z"/>
<path d="M6717 5762 c-38 -42 -10 -153 45 -183 30 -17 149 -28 145 -14 -2 5
-14 11 -28 13 -117 14 -177 101 -98 143 27 14 52 -9 110 -98 40 -61 52 -72 63
-55 10 17 -45 114 -93 162 -43 43 -56 50 -89 50 -25 0 -45 -7 -55 -18z"/>
<path d="M5107 5768 c-44 -34 -41 -114 7 -172 21 -25 35 -31 88 -37 84 -10
138 -2 138 21 0 24 -79 129 -126 168 -40 34 -79 41 -107 20z m100 -60 c29 -31
85 -129 79 -136 -3 -3 -30 0 -61 7 -39 9 -61 21 -80 42 -30 37 -31 49 -4 83
25 32 39 33 66 4z"/>
<path d="M7881 5783 c-57 -11 -197 -191 -170 -218 16 -16 156 -8 188 11 37 22
60 62 67 117 6 40 3 49 -19 71 -14 14 -30 25 -34 25 -4 -1 -19 -4 -32 -6z"/>
<path d="M6134 5716 c-63 -66 -100 -127 -90 -152 9 -23 120 -19 173 7 103 50
114 209 15 209 -32 0 -44 -8 -98 -64z"/>
<path d="M2305 7009 c-33 -4 -122 -7 -197 -8 -103 -1 -138 -4 -138 -13 0 -10
-2 -10 -8 0 -9 14 -118 15 -165 1 -39 -11 -73 -53 -81 -98 -3 -20 -6 -260 -6
-533 0 -571 10 -518 -103 -518 -103 0 -96 -41 -96 527 -1 429 -3 498 -17 533
-9 22 -20 40 -25 40 -5 0 -9 7 -9 15 0 8 -3 14 -7 13 -5 -1 -19 4 -31 11 -19
10 -138 13 -550 13 -290 0 -569 0 -621 -1 l-93 -1 -40 -39 -39 -40 2 -244 c1
-135 -2 -250 -5 -256 -4 -6 -23 -11 -42 -11 -46 0 -43 -15 7 -32 l41 -14 0
-105 c-1 -131 -10 -159 -52 -159 -24 0 -30 -4 -30 -22 0 -17 10 -27 39 -39
l40 -17 3 -238 c3 -268 7 -282 74 -304 51 -17 1223 -18 1282 -1 62 18 70 36
74 184 2 100 6 130 18 137 17 11 139 13 164 4 13 -5 16 -26 16 -130 0 -74 5
-133 12 -149 25 -55 23 -55 588 -55 l521 0 25 -25 c32 -32 57 -91 49 -116 -8
-23 54 -21 -590 -22 -503 -2 -521 -3 -547 -22 -41 -31 -51 -61 -56 -175 -2
-58 -9 -108 -14 -111 -11 -7 -167 -3 -175 4 -2 3 -6 33 -9 68 -9 131 -30 186
-78 215 -29 18 -62 19 -576 22 -332 1 -588 -2 -655 -8 -60 -6 -116 -11 -122
-12 -7 -1 -13 -4 -13 -7 0 -4 -12 -8 -26 -9 -39 -3 -44 -9 -44 -59 0 -38 2
-44 14 -33 8 6 25 10 38 8 l23 -3 3 -211 c2 -196 1 -212 -17 -228 -10 -9 -28
-18 -40 -19 -14 -1 -21 -8 -21 -23 0 -17 8 -23 40 -28 l39 -6 1 -462 c0 -461
0 -462 22 -485 12 -13 35 -27 50 -31 44 -11 1217 -14 1263 -3 28 7 52 23 80
55 l40 44 79 4 c83 3 79 6 106 -53 25 -55 11 -54 699 -53 689 0 672 -1 713 55
18 24 19 50 19 565 -1 296 -3 551 -6 565 -3 16 1 31 9 38 17 14 155 16 168 3
5 -5 10 -263 11 -573 2 -617 1 -604 61 -637 27 -15 81 -17 460 -20 466 -3 471
-3 500 -60 7 -15 17 -41 20 -59 6 -27 4 -32 -16 -39 -13 -4 -223 -8 -468 -9
l-445 -1 -38 -23 c-76 -47 -72 -3 -75 -791 -2 -527 0 -711 9 -727 25 -47 59
-53 317 -53 215 0 242 -2 262 -18 27 -22 21 -54 -18 -98 -47 -54 -56 -55 -285
-55 -117 1 -217 -2 -223 -6 -19 -14 -51 -78 -58 -113 -3 -19 -6 -77 -7 -128
-1 -84 -3 -92 -21 -92 -26 0 -64 43 -72 82 -4 19 -23 47 -51 72 -35 33 -47 51
-54 88 -4 26 -7 49 -5 51 2 2 -5 12 -16 22 -11 10 -20 15 -20 10 0 -4 -7 -2
-16 5 -11 10 -64 13 -217 12 -209 -2 -259 5 -277 38 -18 33 -11 75 15 100 24
23 29 23 248 25 242 2 255 5 287 58 19 31 20 56 20 722 0 412 -4 704 -10 724
-5 18 -17 40 -27 47 -60 48 -48 46 -344 48 -154 0 -283 -2 -286 -6 -2 -5 -12
-4 -21 1 -28 14 -484 12 -475 -2 4 -7 0 -6 -10 2 -16 13 -128 12 -186 -2 -61
-16 -81 -66 -81 -200 0 -58 -4 -117 -10 -131 -9 -23 -15 -26 -62 -26 -73 0
-118 28 -119 72 -2 117 -11 226 -20 245 -6 11 -28 28 -48 37 -33 15 -99 17
-656 14 -503 -2 -625 -6 -647 -17 -16 -8 -35 -33 -48 -63 -19 -44 -21 -65 -18
-178 1 -71 -1 -132 -5 -137 -8 -8 -12 -9 -54 -11 -16 -2 -23 -8 -23 -23 0 -19
1 -19 22 -5 12 9 30 16 40 16 16 0 17 -29 15 -416 -2 -399 -3 -416 -21 -430
-11 -8 -28 -14 -38 -14 -13 0 -18 -8 -18 -25 0 -22 4 -25 39 -25 22 0 41 -3
44 -7 2 -5 0 -48 -3 -98 -5 -77 -4 -95 12 -122 10 -17 25 -34 34 -37 9 -3 93
-6 187 -7 221 -1 284 -9 308 -37 12 -15 19 -18 22 -10 4 10 8 10 15 -1 9 -13
50 -22 90 -21 42 2 62 6 62 14 0 4 12 5 28 2 20 -5 23 -4 12 4 -13 8 -13 10 3
10 9 0 17 6 17 13 0 9 3 8 9 -2 7 -11 10 -10 18 3 8 15 41 18 274 25 290 8
284 6 334 75 l31 41 74 0 75 0 23 -43 c41 -73 54 -77 322 -80 129 -2 239 -7
243 -11 7 -7 -18 -33 -98 -100 -57 -48 -72 -51 -233 -50 -150 0 -155 0 -194
-26 -61 -41 -101 -87 -121 -140 -9 -26 -15 -50 -13 -53 3 -2 24 10 48 27 23
17 45 31 49 31 9 0 6 -192 -4 -207 -10 -15 -154 -18 -177 -3 -12 7 -16 40 -20
147 -6 152 -20 196 -67 214 -16 6 -269 11 -648 13 -698 4 -647 -2 -743 82 -48
42 -52 44 -52 22 0 -15 19 -40 57 -74 l58 -51 -17 -49 c-16 -44 -18 -100 -19
-529 0 -264 0 -594 -1 -734 0 -235 1 -255 19 -279 50 -66 5 -62 673 -63 606
-1 659 1 701 34 34 26 40 57 43 234 4 174 4 177 27 185 27 10 89 2 136 -18
l33 -13 -1 -165 c0 -163 5 -191 36 -223 31 -30 99 -33 700 -33 583 0 607 1
644 20 64 32 60 -6 65 725 1 94 -2 242 -5 330 -5 129 -4 163 7 175 17 17 106
18 147 1 l29 -11 -4 -605 -3 -605 22 -15 c19 -14 103 -15 671 -16 538 0 655 2
683 14 63 26 64 28 69 271 l5 221 29 14 c40 19 109 26 132 13 18 -10 19 -24
16 -216 -4 -232 2 -264 51 -294 30 -19 61 -20 477 -25 245 -3 446 -6 448 -6 2
-1 16 -15 32 -33 16 -17 33 -29 36 -25 4 4 -3 18 -16 32 -18 19 -20 26 -9 29
8 3 96 7 196 8 l183 3 27 28 28 28 0 610 c1 524 3 612 15 619 16 10 135 3 158
-9 10 -6 13 -126 12 -588 0 -653 -1 -651 67 -679 49 -21 1296 -21 1345 -1 70
30 72 39 78 245 l5 186 38 9 c39 9 112 3 135 -12 11 -6 13 -47 12 -179 -1
-192 6 -219 62 -248 27 -14 99 -16 627 -17 328 -1 620 3 649 7 32 5 64 17 80
31 l27 23 5 288 c5 304 3 293 53 308 9 3 17 15 17 26 0 12 -4 19 -8 16 -16 -9
-51 33 -56 66 -3 18 -7 202 -10 410 -5 325 -8 382 -23 420 -21 54 -30 62 -73
75 -22 6 -265 10 -651 9 -702 -1 -634 8 -690 -91 -45 -80 -103 -135 -143 -135
-43 0 -52 12 -66 90 -17 94 -39 122 -105 134 -15 3 -28 6 -29 8 -2 2 -24 34
-49 71 -26 38 -45 73 -42 78 4 5 37 9 75 9 63 0 73 3 103 30 42 36 56 86 56
189 0 40 3 76 6 79 12 12 164 7 176 -5 7 -7 11 -47 10 -105 -1 -71 3 -101 16
-128 33 -65 12 -63 703 -63 573 0 628 1 662 17 45 21 63 61 63 138 0 50 3 58
23 67 13 6 30 11 38 11 25 0 11 33 -14 35 -13 1 -28 8 -33 16 -5 8 -9 208 -9
444 -2 822 -1 810 -76 850 -36 19 -57 20 -663 20 -473 0 -631 -3 -647 -12 -42
-24 -56 -75 -60 -226 -3 -95 -8 -145 -16 -154 -22 -21 -124 -28 -152 -10 -23
15 -24 21 -28 154 -5 166 -21 209 -81 232 -13 5 -159 10 -323 10 l-298 0 -31
33 c-45 48 -81 116 -68 129 6 6 147 13 377 17 l368 7 29 33 c28 31 29 37 29
127 0 87 2 96 23 109 34 22 92 29 131 16 l36 -12 0 -112 c0 -125 8 -147 63
-165 21 -7 238 -10 662 -8 518 2 635 5 657 16 15 8 37 33 49 57 17 36 20 58
17 137 -3 103 6 127 48 127 17 0 24 6 24 20 0 13 -7 20 -19 20 -11 0 -27 10
-35 22 -13 19 -16 70 -16 343 -1 176 -2 359 -3 407 -2 82 -1 88 21 98 13 5 29
10 37 10 9 0 15 10 15 25 0 17 -4 23 -15 19 -22 -9 -68 42 -60 67 4 12 4 55 0
97 -6 69 -10 78 -45 116 l-39 41 -513 2 c-282 1 -544 2 -583 3 -109 1 -149 -5
-186 -28 -43 -26 -58 -53 -73 -127 l-11 -56 -89 -2 -89 -2 -4 40 c-2 22 -16
65 -31 94 -42 85 -22 82 -619 79 l-513 -3 0 33 c0 38 -40 82 -73 82 -19 0 -19
-2 6 -28 33 -35 35 -69 5 -81 -13 -5 -56 -11 -96 -14 -75 -6 -118 -24 -129
-55 -4 -9 -11 -20 -17 -24 -16 -11 -24 -298 -25 -878 -1 -351 3 -558 9 -582
19 -68 38 -72 330 -73 294 -2 299 -3 336 -79 29 -61 30 -68 3 -84 -16 -10 -75
-13 -243 -12 -121 1 -246 3 -276 5 -58 2 -120 -18 -120 -40 0 -7 -7 -18 -15
-25 -11 -9 -15 -34 -15 -94 0 -129 -5 -135 -102 -142 -73 -4 -85 12 -92 119
-8 107 -25 153 -63 168 -19 7 -231 11 -663 12 -703 2 -679 4 -712 -62 -15 -30
-17 -83 -17 -500 0 -256 -1 -474 -1 -483 0 -33 -27 -47 -82 -43 -79 5 -88 21
-89 164 -1 64 -3 136 -5 161 -1 25 -3 171 -4 324 0 154 -5 300 -11 325 -11 49
-40 88 -76 102 -13 5 -23 13 -23 18 0 11 140 166 175 193 13 10 38 24 55 30
28 9 36 7 78 -23 l47 -34 643 -3 c427 -1 657 1 683 8 75 21 71 -16 70 693 -1
347 -4 666 -7 707 -7 96 -55 203 -83 185 -6 -3 -11 -2 -11 3 0 25 -79 30 -518
31 -343 0 -467 4 -481 13 -11 6 -30 34 -42 61 -26 54 -36 49 -20 -8 12 -43 6
-64 -17 -63 -18 1 -108 -10 -156 -18 -28 -5 -75 -41 -76 -57 0 -5 -9 -20 -19
-33 -15 -18 -20 -49 -26 -134 -4 -61 -11 -113 -17 -116 -5 -3 -37 -3 -70 1
-89 11 -108 33 -108 125 0 86 -16 126 -70 179 -33 31 -51 41 -79 42 -181 8
-1114 5 -1146 -3 -53 -13 -81 -41 -116 -115 -16 -35 -50 -86 -75 -114 -25 -28
-43 -54 -39 -57 3 -3 26 9 51 27 26 18 49 30 52 27 3 -4 1 -27 -4 -53 -7 -38
-14 -49 -34 -54 -35 -10 -123 -10 -137 -1 -13 8 -21 68 -22 169 -1 50 -6 67
-26 91 -13 16 -22 32 -19 35 8 7 -43 33 -83 42 -54 11 -129 129 -103 161 7 8
46 13 106 16 150 5 135 -79 132 757 -3 790 1 740 -75 776 -34 17 -70 19 -373
19 -184 1 -362 -2 -395 -5z m753 -96 c59 -43 57 -23 58 -693 0 -338 -4 -632
-8 -653 -11 -50 -27 -66 -80 -75 -80 -14 -97 -6 -124 51 -35 76 -34 80 30 72
50 -7 57 -5 80 18 23 23 26 34 26 95 0 77 -9 92 -57 92 -81 0 -127 -44 -139
-133 -5 -34 0 -58 21 -108 14 -35 29 -71 31 -79 4 -13 -11 -15 -95 -17 -73 -2
-104 1 -113 11 -7 7 -22 11 -33 9 -11 -2 -14 -1 -7 3 6 3 12 12 12 19 0 7 15
35 33 61 19 27 35 54 37 59 15 43 26 65 32 65 4 0 8 11 8 24 0 14 5 37 11 53
7 15 13 42 16 58 4 32 10 67 13 75 1 3 2 8 2 11 -1 4 -2 56 -3 115 -1 64 -8
122 -16 141 -7 18 -13 36 -12 39 1 3 -8 19 -20 35 -19 26 -71 49 -123 54 -10
1 -21 4 -24 8 -9 8 -7 136 2 177 4 19 8 67 8 106 -1 105 -49 197 -131 251 -26
17 -31 38 -8 29 8 -3 18 1 23 9 8 15 24 19 142 30 36 4 67 9 69 11 3 3 74 3
158 1 135 -3 157 -6 181 -24z m-830 -4 c6 -1 12 -7 12 -12 0 -5 10 -7 22 -4
12 3 30 2 40 -4 17 -9 17 -11 -6 -42 -31 -42 -40 -71 -37 -132 3 -68 11 -137
18 -148 12 -20 10 -101 -4 -142 -15 -46 -90 -127 -140 -154 -26 -13 -28 -12
-59 25 -32 38 -35 39 -110 42 -87 5 -149 -10 -164 -38 -7 -13 -11 -143 -12
-352 -2 -302 0 -337 16 -375 10 -24 23 -43 30 -44 6 0 25 -3 41 -6 17 -3 60
-5 98 -4 38 1 67 -3 67 -8 0 -6 15 -8 33 -6 29 4 31 3 13 -10 -14 -11 -50 -14
-145 -13 -134 2 -137 3 -181 62 -22 29 -25 1246 -3 1293 16 36 52 63 98 74 26
7 339 5 373 -2z m-1798 -29 c3 -1 33 -1 68 0 34 1 62 0 62 -2 0 -3 -39 -24
-87 -48 -69 -34 -106 -62 -168 -125 -85 -84 -116 -136 -155 -257 -12 -38 -24
-68 -26 -68 -9 0 -2 370 7 411 14 61 51 87 122 87 32 -1 59 1 61 3 4 4 104 3
116 -1z m533 -6 c40 -9 101 -30 137 -46 77 -34 69 -23 -12 19 l-58 30 169 -3
c221 -5 239 -14 267 -135 3 -13 8 -105 10 -204 l4 -180 -20 65 c-29 92 -83
199 -127 249 -41 49 -129 121 -146 121 -7 0 2 -8 18 -19 54 -32 139 -126 172
-187 58 -110 86 -266 63 -349 -7 -25 -16 -45 -20 -45 -4 0 -15 -28 -25 -61
-11 -34 -27 -66 -37 -73 -10 -6 -18 -15 -18 -20 0 -5 -9 -17 -21 -27 -11 -9
-21 -21 -21 -26 -1 -13 -22 -43 -30 -43 -15 0 -68 -53 -68 -67 0 -10 -6 -12
-22 -7 -19 6 -21 5 -11 -8 14 -17 8 -28 -16 -28 -9 0 -21 -10 -26 -22 -6 -12
-17 -24 -25 -28 -8 -4 -25 -12 -38 -19 -13 -6 -27 -9 -31 -6 -5 3 -11 -2 -15
-10 -3 -8 -10 -15 -17 -15 -6 0 -9 6 -6 14 4 11 -2 12 -36 3 -24 -7 -35 -13
-24 -15 31 -6 18 -18 -23 -20 -23 -2 -53 -7 -68 -13 -21 -8 -29 -7 -41 8 -11
15 -13 15 -8 1 5 -14 -1 -16 -46 -14 -34 2 -52 8 -55 17 -3 12 -2 12 6 0 7 -9
12 -10 16 -2 4 6 2 12 -3 12 -12 2 -26 5 -38 9 -5 1 -12 2 -17 1 -5 -1 -13 4
-17 10 -6 10 -11 10 -25 -2 -16 -12 -17 -12 -11 3 3 10 3 17 -1 16 -10 -2 -66
25 -74 37 -5 6 -8 5 -8 -3 0 -10 -4 -10 -16 2 -8 9 -12 20 -9 26 3 5 1 10 -4
10 -6 0 -11 -4 -11 -10 0 -5 -12 -10 -26 -10 -16 0 -24 5 -22 12 6 16 -28 53
-49 53 -9 0 -17 9 -19 20 -2 11 -7 21 -13 23 -19 6 -50 39 -44 46 4 4 -5 17
-19 30 -15 12 -28 29 -30 36 -2 8 -13 23 -26 33 -13 11 -21 24 -19 31 2 6 -4
23 -14 37 -33 47 -43 188 -23 306 34 200 206 370 436 432 93 25 251 27 351 5z
m1500 -48 c89 -37 152 -192 98 -243 -31 -30 -77 -146 -85 -214 -4 -39 -26 -76
-55 -90 -23 -12 -12 -14 114 -19 172 -7 205 -22 205 -94 0 -41 -28 -47 -208
-50 -152 -2 -167 -4 -170 -20 -2 -10 0 -22 5 -27 4 -4 74 -9 155 -10 200 -3
240 -21 205 -95 -19 -39 -5 -36 -212 -38 l-150 -1 -3 -27 -3 -28 98 -1 c197
-1 233 -8 233 -49 0 -23 -24 -42 -47 -39 -10 2 -27 -2 -38 -8 -24 -13 -57 -12
-67 2 -5 6 -8 5 -8 -4 0 -11 -3 -11 -17 0 -14 12 -16 12 -8 0 7 -12 -3 -13
-63 -8 -58 6 -73 4 -87 -9 -29 -30 0 -43 100 -45 110 -2 138 -11 133 -42 -3
-22 -6 -22 -141 -23 -76 0 -140 3 -143 8 -3 5 -10 6 -15 2 -6 -3 -19 2 -30 12
-10 9 -22 15 -25 11 -3 -3 -16 4 -28 16 -11 12 -34 29 -49 37 -16 8 -33 22
-38 32 -6 10 -14 16 -19 13 -5 -3 -9 3 -9 12 -1 10 -3 43 -5 73 -3 30 -6 120
-8 200 l-3 145 60 32 c68 36 129 98 175 178 35 62 70 157 70 193 0 26 -35 92
-57 105 -22 13 -16 71 10 94 39 36 78 41 130 19z m-443 -661 c3 -71 4 -207 2
-302 -3 -142 -6 -170 -17 -160 -7 7 -11 15 -8 19 2 5 -7 4 -21 -1 -18 -7 -28
-6 -36 4 -7 8 -16 12 -22 9 -15 -10 -76 39 -82 66 -9 41 -20 425 -12 454 9 36
37 46 121 43 l70 -2 5 -130z m-546 -430 c6 -89 -17 -202 -44 -216 -65 -33 -89
-39 -169 -39 -47 0 -92 4 -100 9 -16 11 -4 36 33 68 14 13 26 26 26 30 0 5 14
16 31 26 18 10 29 20 27 23 -3 2 21 33 54 67 33 34 67 74 76 90 9 15 20 27 24
27 4 0 8 8 8 17 0 15 2 15 14 -2 7 -11 16 -56 20 -100z m-1319 74 c-4 -5 -2
-8 3 -7 9 3 62 -65 62 -79 0 -3 14 -22 31 -42 16 -20 39 -47 50 -59 10 -13 19
-28 19 -33 0 -6 4 -8 8 -5 5 3 25 -10 45 -29 21 -19 37 -32 37 -27 0 4 5 -1
11 -11 6 -10 9 -21 6 -24 -5 -4 -109 -6 -203 -4 -35 1 -98 56 -90 78 3 7 1 15
-4 18 -5 3 -9 62 -9 130 0 121 1 125 20 114 11 -5 17 -14 14 -20z m1926 -644
c5 3 17 1 27 -4 11 -6 22 -7 26 -4 11 11 47 10 43 0 -4 -12 -9 -15 -85 -51
-145 -70 -283 -229 -321 -374 -7 -23 -17 -42 -23 -42 -8 0 -9 50 -5 173 8 201
12 226 40 259 27 31 61 40 154 39 40 0 75 4 78 9 3 6 16 5 31 0 14 -6 30 -8
35 -5z m-1139 -9 c40 -8 97 -23 127 -35 30 -11 56 -19 59 -17 2 2 -17 12 -42
21 -25 10 -46 21 -46 26 0 4 49 8 110 8 60 0 114 2 120 6 5 3 10 1 10 -5 0 -6
11 -8 25 -6 14 3 25 0 25 -5 0 -6 4 -8 9 -5 27 17 105 -48 118 -98 15 -59 22
-131 22 -236 l0 -125 -32 75 c-19 41 -46 95 -61 120 -29 46 -85 110 -96 110
-4 0 11 -19 32 -42 58 -63 116 -190 129 -285 10 -75 6 -194 -8 -217 -4 -6 -8
-15 -9 -21 -3 -26 -17 -55 -26 -55 -6 0 -7 -7 -4 -16 3 -8 -1 -25 -9 -38 -8
-12 -12 -26 -8 -31 5 -4 3 -5 -3 -2 -7 4 -15 -4 -19 -21 -10 -39 -67 -112 -84
-107 -9 4 -11 0 -7 -10 3 -8 1 -15 -4 -15 -6 0 -10 8 -11 18 0 11 -5 6 -14
-13 -7 -16 -18 -31 -24 -31 -6 -1 -15 -2 -21 -3 -5 0 -10 -7 -10 -15 0 -7 -7
-19 -15 -26 -12 -10 -18 -10 -32 1 -16 13 -17 12 -4 -3 12 -16 11 -18 -4 -18
-10 0 -15 -5 -12 -13 3 -7 -4 -19 -15 -26 -11 -7 -17 -8 -13 -2 3 7 -2 11 -14
11 -13 0 -18 -5 -15 -13 6 -17 -39 -41 -65 -34 -16 4 -25 -2 -36 -21 -8 -15
-14 -22 -15 -17 0 6 -25 11 -55 12 -38 1 -53 -2 -49 -9 5 -8 -8 -9 -42 -4 -27
5 -67 8 -89 8 -28 -1 -35 2 -25 8 11 7 7 10 -17 10 -17 0 -35 5 -38 11 -4 6
-13 8 -21 5 -7 -3 -20 2 -29 10 -8 9 -15 13 -15 9 0 -3 -10 0 -22 7 -13 7 -27
11 -31 10 -4 -1 -10 5 -13 13 -4 8 -11 15 -18 15 -6 0 -32 18 -56 40 -25 21
-52 45 -60 52 -8 7 -17 13 -20 13 -10 0 -42 35 -33 35 4 0 -3 6 -16 13 -13 6
-29 21 -35 32 -6 11 -17 24 -24 28 -7 5 -10 12 -7 18 4 5 -1 9 -9 9 -15 0 -18
8 -19 56 -1 16 -6 20 -22 17 -11 -2 -14 0 -7 3 10 5 9 10 -5 21 -10 8 -12 12
-5 8 13 -7 17 7 5 19 -4 3 -9 14 -11 24 -2 9 -6 28 -10 42 -11 46 -2 239 14
288 36 106 68 157 143 232 102 100 230 166 356 183 71 9 209 6 277 -7z m1713
-15 c69 -24 68 -24 60 -11 -3 6 -15 10 -25 10 -10 0 -22 5 -25 10 -10 15 306
6 335 -10 31 -16 70 -59 70 -76 0 -8 5 -14 11 -14 5 0 7 -5 4 -10 -4 -6 -2
-16 3 -23 24 -30 43 -319 22 -332 -5 -3 -10 2 -10 12 0 41 -80 185 -144 257
-41 46 -30 21 16 -37 22 -29 55 -81 71 -117 33 -73 59 -217 47 -261 -5 -16 -6
-37 -3 -47 2 -10 -2 -25 -10 -33 -7 -8 -13 -27 -13 -42 1 -18 -3 -26 -11 -23
-7 3 -10 -1 -6 -10 3 -7 -1 -14 -8 -14 -7 0 -9 -3 -6 -7 10 -9 -13 -34 -25
-27 -6 4 -8 -2 -3 -15 4 -13 2 -21 -5 -21 -6 0 -9 -4 -6 -8 3 -5 -5 -20 -17
-33 -21 -22 -43 -57 -69 -106 -6 -13 -18 -23 -25 -23 -8 0 -11 -4 -8 -10 3 -5
0 -10 -8 -10 -7 0 -24 -11 -37 -25 -13 -14 -31 -25 -41 -25 -9 0 -19 -7 -22
-15 -8 -20 -87 -59 -87 -43 -1 7 -8 0 -17 -16 -15 -28 -16 -29 -29 -11 -12 17
-18 14 -16 -7 3 -17 -27 -29 -47 -19 -28 15 -36 14 -21 -4 10 -12 10 -15 -3
-15 -9 0 -19 5 -22 10 -8 12 -46 3 -57 -14 -6 -8 -8 -8 -8 0 0 14 -48 16 -56
3 -3 -5 -11 -6 -17 -2 -7 4 -21 9 -32 10 -33 5 -47 12 -41 22 8 13 -37 0 -47
-13 -5 -7 -7 -2 -4 10 4 17 1 20 -15 16 -12 -3 -25 3 -34 17 -11 16 -26 21
-57 21 -44 0 -83 17 -59 27 16 6 16 24 -1 17 -14 -5 -102 40 -113 58 -5 7 -2
8 6 3 9 -5 11 -4 6 3 -4 7 -12 12 -19 12 -15 0 -97 90 -97 107 0 17 -17 17
-24 1 -3 -7 -3 -3 0 9 3 15 -2 28 -15 40 -12 10 -21 25 -21 35 0 10 -6 18 -12
18 -10 0 -9 3 1 9 9 6 10 11 2 15 -6 4 -11 16 -11 26 0 10 -6 20 -12 23 -10 3
-13 39 -12 138 1 118 4 143 28 213 38 113 92 188 187 261 89 69 195 117 309
139 14 2 86 3 160 2 107 -3 148 -8 195 -25z m1539 15 c41 -8 102 -26 136 -39
33 -14 60 -23 60 -21 0 2 -21 15 -47 29 l-48 24 155 -3 c125 -2 162 -7 193
-21 20 -10 37 -23 37 -29 0 -5 9 -28 19 -50 26 -53 35 -154 31 -321 l-1 -60
-28 77 c-32 88 -82 166 -149 229 -42 41 -42 39 9 -16 74 -83 114 -162 133
-265 19 -103 15 -167 -15 -259 -7 -20 -13 -46 -15 -57 -1 -12 -10 -31 -20 -43
-11 -12 -19 -25 -19 -29 0 -15 -72 -121 -79 -115 -3 3 -6 1 -6 -7 0 -10 -3
-10 -15 0 -13 11 -14 10 -9 -4 3 -9 1 -16 -6 -16 -6 0 -8 -4 -5 -10 3 -5 -1
-10 -9 -10 -9 0 -16 -7 -16 -16 0 -11 -6 -14 -22 -10 -13 3 -17 3 -10 0 17 -8
15 -24 -3 -24 -8 0 -15 -5 -15 -10 0 -6 -12 -16 -27 -22 -16 -7 -38 -24 -51
-38 -21 -23 -24 -24 -36 -7 -7 9 -16 17 -20 17 -9 0 -8 -27 2 -33 4 -2 1 -2
-6 0 -8 2 -26 -6 -41 -16 -17 -13 -37 -17 -56 -14 -23 3 -27 2 -15 -6 13 -10
13 -11 0 -12 -30 -3 -55 3 -62 15 -7 10 -12 -5 -9 -26 0 -4 -11 -3 -25 2 -18
7 -31 7 -39 0 -9 -7 -16 -6 -25 5 -15 18 -30 20 -30 3 0 -7 -12 -14 -26 -14
-20 -2 -25 2 -21 15 3 14 -4 17 -34 18 -21 1 -54 9 -73 18 -19 9 -40 13 -47 9
-9 -5 -10 1 -6 22 3 16 4 24 1 18 -6 -14 -44 -6 -44 8 0 6 -7 8 -15 4 -8 -3
-18 1 -22 8 -5 8 -17 15 -27 17 -11 2 -21 10 -24 18 -3 9 0 11 8 6 9 -5 11 -4
6 3 -4 7 -18 12 -32 12 -15 0 -24 6 -24 16 0 8 -5 12 -10 9 -6 -3 -13 1 -16 9
-3 9 -12 16 -19 16 -8 0 -17 9 -20 20 -3 11 -11 20 -16 20 -6 0 -7 5 -4 10 4
6 -5 24 -19 41 -15 17 -24 35 -21 40 4 5 -2 6 -11 2 -13 -5 -15 -3 -9 7 5 8 2
17 -7 24 -8 6 -15 13 -16 16 -6 49 -29 109 -47 123 -7 6 -6 10 2 13 9 4 9 12
2 32 -16 41 -2 193 25 266 33 92 72 153 140 222 142 141 393 205 630 160z
m1637 0 c6 4 15 1 19 -7 6 -9 12 -10 22 -2 16 13 209 22 201 9 -3 -4 4 -5 15
-2 21 7 96 8 139 3 28 -4 93 -39 93 -50 0 -5 9 -16 19 -25 26 -22 31 -56 36
-237 l5 -150 -28 80 c-15 44 -33 89 -39 100 -19 34 -73 98 -73 87 0 -6 5 -14
11 -18 22 -13 78 -147 89 -215 16 -94 10 -247 -10 -259 -9 -6 -10 -10 -3 -10
16 0 -7 -67 -39 -112 -28 -39 -64 -79 -53 -58 5 9 4 12 -1 7 -9 -8 -10 -12
-13 -39 0 -6 -4 -8 -8 -5 -7 7 -39 -33 -36 -45 2 -4 -6 -10 -17 -13 -11 -4
-20 -12 -20 -19 0 -7 -11 -22 -25 -34 -14 -12 -25 -21 -25 -19 0 2 -39 -35
-87 -81 -49 -47 -89 -83 -90 -81 -3 4 -76 -57 -125 -103 -16 -16 -33 -28 -38
-28 -6 0 -10 -3 -10 -7 0 -5 -12 -13 -26 -20 -24 -11 -32 -9 -82 27 -30 22
-61 49 -69 60 -8 11 -21 20 -29 20 -8 0 -14 5 -14 10 0 6 -11 15 -23 19 -48
19 -297 246 -297 272 0 9 -13 26 -58 78 -14 16 -20 19 -16 9 10 -29 -4 -20
-22 13 -8 17 -11 28 -5 25 7 -4 8 -1 5 8 -3 9 -10 14 -14 11 -8 -5 -25 24 -22
38 1 4 -3 7 -9 7 -6 0 -9 7 -6 15 4 8 2 17 -2 19 -4 3 -14 33 -21 66 -25 119
3 317 56 395 8 11 14 24 14 30 0 13 -43 -52 -63 -95 -9 -19 -23 -61 -32 -92
-9 -32 -19 -58 -21 -58 -11 0 6 259 20 310 8 30 12 59 9 64 -4 5 -1 6 5 2 7
-4 14 3 17 17 4 15 21 30 50 43 25 10 45 21 45 24 0 7 60 9 372 12 153 2 278
7 278 11 0 4 9 3 20 -3 11 -6 25 -8 31 -4z m2939 -1 c-6 -7 -23 -15 -38 -18
-33 -7 -153 -79 -204 -122 -81 -68 -176 -215 -199 -307 -6 -28 -16 -45 -22
-41 -15 9 0 357 18 399 7 18 11 34 9 37 -2 2 11 15 31 28 19 13 35 27 35 31 0
4 86 7 190 6 150 -1 188 -4 180 -13z m455 -13 c33 -11 69 -23 80 -27 11 -4 2
5 -20 19 l-40 26 176 -3 176 -3 30 -29 c16 -17 33 -39 37 -50 4 -11 9 -99 11
-195 l4 -175 -49 100 c-48 97 -70 127 -140 190 -19 17 -10 3 19 -29 59 -67 99
-140 131 -241 18 -59 20 -84 15 -160 -9 -127 -15 -168 -28 -184 -7 -8 -11 -22
-9 -33 2 -10 -4 -21 -13 -24 -9 -4 -14 -13 -11 -20 3 -8 -1 -14 -9 -14 -8 0
-15 -9 -15 -20 0 -11 -4 -20 -10 -20 -5 0 -10 -7 -10 -15 0 -8 -6 -15 -12 -15
-9 0 -8 -4 2 -10 12 -8 12 -10 1 -10 -17 0 -61 -46 -61 -65 0 -7 -9 -17 -20
-20 -11 -3 -20 -11 -20 -17 0 -6 -8 -9 -17 -6 -18 4 -66 -36 -55 -46 3 -3 0
-6 -6 -6 -7 0 -12 -7 -12 -15 0 -12 -8 -14 -31 -10 -20 4 -28 2 -24 -5 4 -6
-7 -15 -24 -21 -17 -6 -29 -14 -27 -17 2 -4 -12 -7 -31 -8 -19 0 -38 -6 -42
-13 -5 -7 -38 -14 -76 -17 -38 -3 -77 -10 -88 -16 -15 -8 -18 -7 -12 2 5 8 3
11 -6 8 -8 -3 -22 -1 -31 4 -11 5 -25 5 -36 -1 -13 -7 -23 -6 -30 1 -9 9 -12
9 -12 0 0 -21 -34 -12 -69 18 -19 16 -38 27 -43 24 -4 -3 -8 0 -8 5 0 6 -6 10
-12 8 -7 -1 -12 4 -11 10 3 15 -18 13 -29 -2 -4 -6 -8 -2 -8 8 0 9 -5 17 -11
17 -5 0 -7 5 -3 11 4 8 0 8 -15 0 -17 -10 -21 -9 -21 3 0 18 -28 34 -53 31
-14 -3 -16 0 -7 10 16 19 -21 40 -40 22 -10 -10 -12 -7 -8 15 3 15 1 25 -4 22
-4 -3 -11 1 -14 9 -3 9 -17 18 -30 21 -14 4 -22 11 -19 16 4 6 -1 13 -9 16 -9
3 -16 13 -16 20 0 8 -6 17 -14 20 -8 3 -13 11 -10 19 3 7 -2 15 -10 18 -24 10
-73 135 -62 162 2 7 0 15 -7 18 -7 2 -13 34 -15 83 -7 148 49 305 146 410 94
103 194 163 332 201 75 20 101 23 220 19 98 -3 151 -10 195 -24z m-8698 4 c-2
-6 -13 -12 -25 -14 -12 -2 -22 -8 -22 -13 0 -5 -4 -9 -10 -9 -17 0 -113 -66
-167 -114 -81 -73 -146 -186 -172 -301 l-9 -40 -2 55 c-3 123 2 249 15 320 8
49 66 116 91 106 7 -3 16 -1 19 4 3 5 18 7 33 4 15 -3 45 -1 67 4 59 13 186
11 182 -2z m3181 -34 c-51 -26 -95 -59 -149 -112 -84 -84 -129 -157 -170 -275
l-28 -80 0 115 c0 63 4 148 9 188 11 80 45 156 68 147 7 -2 11 -1 8 4 -5 8 19
23 57 35 10 3 55 9 100 12 45 3 83 7 84 8 1 0 23 0 48 -2 l47 -4 -74 -36z
m3259 12 c10 -14 10 -19 0 -26 -6 -4 15 -8 49 -8 101 0 184 -32 253 -95 32
-30 62 -55 66 -55 5 0 32 23 62 51 67 63 125 89 217 96 116 9 171 -12 260
-100 136 -133 181 -289 153 -522 -2 -11 -7 -26 -11 -33 -4 -7 -5 -20 -2 -28 3
-8 -1 -17 -9 -20 -8 -4 -15 -13 -15 -21 0 -10 -6 -13 -16 -9 -14 5 -15 4 -4
-9 8 -10 9 -15 1 -15 -6 0 -11 -9 -11 -20 0 -11 -7 -20 -15 -20 -9 0 -18 -12
-21 -30 -4 -16 -10 -27 -14 -25 -5 3 -11 -8 -15 -25 -4 -19 -22 -41 -53 -64
-26 -19 -57 -45 -69 -58 -35 -37 -51 -48 -73 -48 -11 0 -20 -4 -20 -9 0 -5
-10 -11 -22 -15 -13 -3 -23 -5 -23 -3 0 1 -11 -6 -24 -15 -13 -9 -29 -14 -36
-12 -7 3 -16 1 -20 -5 -3 -6 -17 -11 -31 -11 -13 0 -24 -3 -24 -7 0 -5 -14
-16 -31 -26 -29 -16 -34 -16 -55 -2 -13 8 -29 15 -36 14 -7 0 -2 -5 12 -11 24
-10 24 -10 5 -18 -13 -4 -24 -2 -31 8 -8 11 -13 12 -18 3 -4 -6 -11 -9 -15 -6
-5 2 -36 7 -71 10 -35 4 -71 10 -80 15 -10 5 -29 7 -44 4 -14 -2 -25 0 -24 5
2 5 -1 9 -5 9 -4 0 -19 8 -33 17 -13 9 -29 13 -34 10 -6 -3 -10 -1 -10 5 0 7
-7 10 -15 6 -8 -3 -15 -1 -15 5 0 5 -14 15 -30 21 -17 5 -35 19 -41 29 -5 10
-14 19 -19 19 -6 0 -18 7 -27 15 -55 47 -88 82 -89 93 -3 31 -5 34 -25 29 -16
-4 -18 -3 -8 9 8 10 8 14 0 14 -6 0 -11 7 -11 15 0 8 -6 15 -13 15 -6 0 -18
15 -25 33 -8 17 -22 50 -33 73 -22 47 -37 171 -32 253 13 190 118 372 253 439
25 12 34 20 20 16 -28 -8 -92 -49 -132 -87 -42 -39 -102 -138 -127 -209 -40
-111 -41 -110 -38 37 2 136 3 142 33 196 50 90 66 101 158 115 16 2 32 7 35
10 12 12 106 -5 118 -22z m992 -2 c47 -19 61 -35 77 -89 18 -60 32 -329 16
-319 -6 3 -14 21 -17 39 -25 116 -181 301 -287 340 -28 10 -21 35 10 40 60 8
169 3 201 -11z m274 -73 c12 -7 25 -16 28 -21 11 -17 9 -121 -2 -134 -7 -9
-34 -14 -74 -14 -95 0 -95 0 -95 86 0 68 2 75 23 84 32 13 95 12 120 -1z
m-6526 -120 c13 -13 5 -1040 -8 -1077 -5 -12 -20 -27 -34 -32 -38 -14 -107
-12 -129 5 -18 14 -19 36 -21 555 -2 485 0 542 14 550 23 13 165 12 178 -1z
m3175 -40 c29 -6 58 -17 63 -24 16 -19 12 -993 -3 -1022 -27 -50 -93 -54 -143
-9 l-27 23 -4 509 c-3 280 -3 515 0 522 5 15 44 15 114 1z m3390 -59 c2 -5 1
-188 -2 -406 -6 -448 1 -419 -91 -423 -94 -4 -89 -28 -89 429 0 218 3 400 7
403 10 11 171 8 175 -3z m-3242 -535 c10 -12 10 -15 -1 -15 -9 0 -10 -3 -3 -8
6 -4 13 -14 17 -22 4 -8 15 -26 24 -39 17 -24 17 -24 -4 -13 -29 16 -32 15
-26 -7 3 -11 32 -39 66 -62 63 -45 97 -74 97 -85 0 -4 26 -33 58 -65 31 -32
76 -78 100 -103 23 -25 42 -42 42 -39 0 3 13 -11 29 -31 16 -20 33 -37 37 -36
3 1 12 -9 19 -22 23 -46 13 -49 -144 -49 -80 0 -172 -1 -203 -2 -32 -2 -58 1
-58 4 0 4 -8 5 -17 3 -21 -5 -45 12 -61 41 -9 19 -11 496 -2 548 4 21 14 22
30 2z m1349 -265 c1 -200 -2 -230 -18 -267 -11 -23 -28 -46 -39 -52 -11 -6
-106 -10 -228 -11 -251 -1 -234 -2 -234 8 0 12 209 222 221 222 5 0 9 7 9 16
0 8 3 13 8 11 4 -3 23 16 42 41 19 26 53 63 74 84 33 32 46 38 83 38 39 0 43
2 43 25 0 21 -5 25 -30 25 -16 0 -30 2 -30 5 0 3 19 31 42 61 36 48 43 53 49
38 4 -11 8 -120 8 -244z m-3263 -111 c-1 -63 -6 -123 -11 -134 -14 -35 -48
-65 -72 -65 -13 0 -23 -5 -23 -10 0 -14 -185 -11 -220 2 -15 6 -20 12 -12 15
6 3 12 9 12 15 0 5 13 23 30 38 29 27 30 27 24 5 -4 -18 -1 -25 15 -30 11 -3
25 -3 31 0 15 9 12 45 -5 51 -10 4 -4 16 27 47 22 23 51 59 64 80 13 20 28 37
32 37 4 0 16 13 27 29 10 16 23 27 27 25 4 -3 8 2 8 10 0 8 8 19 18 25 26 15
31 -11 28 -140z m1612 16 c2 -92 -1 -126 -13 -152 -9 -18 -20 -33 -24 -33 -4
0 -18 -9 -31 -20 -13 -11 -32 -21 -44 -21 -41 -2 -209 1 -212 4 -7 7 9 46 17
41 5 -3 9 -1 9 5 0 6 16 21 35 34 19 13 32 27 28 30 -3 4 1 7 9 7 9 0 18 7 22
15 3 8 13 15 22 15 10 0 14 5 10 15 -3 9 0 15 9 15 8 0 15 5 15 10 0 6 11 23
25 38 15 15 42 48 63 75 20 26 41 46 47 44 6 -2 11 -52 13 -122z m-4552 58
c-3 -7 -1 -13 5 -13 6 0 20 -8 33 -17 22 -17 23 -18 3 -33 -18 -15 -18 -17 24
-45 24 -15 71 -51 104 -79 93 -79 89 -74 74 -92 -11 -13 -32 -15 -119 -12 -90
3 -110 6 -137 26 -28 20 -32 30 -39 90 -11 91 -6 215 9 224 15 10 50 -30 43
-49z m1302 -91 c3 -171 -24 -203 -170 -201 -46 0 -92 4 -103 9 -11 5 -15 9
-10 9 6 1 4 5 -4 10 -10 7 -4 17 27 48 22 21 52 47 66 58 14 11 26 25 26 32 0
7 5 13 10 13 6 0 10 5 10 10 0 6 10 21 23 34 12 12 33 39 47 59 14 20 33 40
43 43 9 3 17 11 18 17 4 43 16 -56 17 -141z m6911 79 c57 -59 105 -119 109
-137 3 -13 16 -18 35 -15 4 1 15 -12 25 -29 9 -16 22 -30 27 -30 6 0 10 -11
10 -25 0 -16 -5 -23 -12 -21 -7 3 -15 0 -19 -6 -4 -7 -3 -8 4 -4 7 4 12 2 12
-4 0 -16 -178 -10 -210 7 -14 7 -20 13 -15 13 6 0 -1 8 -15 18 -31 21 -35 42
-34 169 0 71 5 107 14 119 10 11 16 12 18 4 2 -6 25 -33 51 -59z m-6607 42 c8
-10 27 -38 41 -63 36 -61 190 -211 223 -216 22 -3 24 -7 15 -23 -11 -17 -111
-25 -194 -17 -49 6 -72 14 -98 35 l-33 28 3 99 c1 54 4 110 6 124 2 14 4 31 4
38 1 17 15 15 33 -5z m4864 -2 c-3 -5 2 -11 12 -13 9 -3 24 -18 32 -34 8 -16
26 -41 40 -56 75 -80 104 -107 111 -102 5 3 9 0 9 -6 0 -12 24 -40 34 -40 3 0
15 -8 26 -17 29 -25 26 -48 -7 -49 -16 0 -63 -2 -105 -4 -61 -2 -83 1 -110 17
-50 29 -58 54 -56 183 1 111 4 130 14 130 3 0 3 -4 0 -9z m1394 -157 c0 -92
-1 -97 -28 -124 -33 -33 -90 -45 -182 -38 -58 4 -88 16 -62 25 6 3 9 9 6 15
-3 5 3 12 15 15 11 3 18 9 15 14 -3 5 -1 9 4 9 6 0 26 15 44 33 66 61 91 82
99 80 4 -1 4 8 1 20 -3 12 -1 19 3 15 5 -5 14 1 22 12 8 11 25 20 39 20 24 0
24 -1 24 -96z m1632 -9 c0 -74 -3 -89 -25 -113 -23 -25 -101 -43 -165 -38 -65
5 -72 10 -44 35 12 10 22 23 22 30 0 6 4 11 8 11 11 0 42 30 72 69 14 19 33
42 43 52 9 11 17 23 17 27 0 5 12 13 28 18 23 8 28 7 36 -11 5 -11 8 -47 8
-80z m-6093 -26 c57 -33 82 -53 81 -66 0 -4 7 -16 15 -26 9 -10 13 -22 10 -27
-10 -16 -202 -12 -233 4 -34 18 -70 59 -77 89 -5 20 -1 26 22 35 76 29 117 27
182 -9z m1241 -64 c16 -20 -33 -86 -140 -189 l-81 -77 -64 4 c-51 3 -70 8 -90
27 -29 27 -85 111 -85 127 0 7 56 12 158 14 176 4 196 11 234 75 21 36 48 44
68 19z m-3830 -379 c30 -7 79 -23 109 -35 66 -25 80 -21 17 5 -24 10 -43 21
-41 24 4 6 68 5 258 -3 71 -3 93 -8 115 -25 l26 -22 4 -191 c3 -133 1 -194 -7
-202 -8 -8 -11 -5 -11 11 0 31 -36 118 -72 171 -32 47 -127 151 -139 151 -4 0
22 -30 56 -66 102 -106 152 -233 161 -405 4 -90 2 -102 -17 -128 -12 -16 -18
-34 -15 -40 4 -6 2 -11 -3 -11 -6 0 -11 -9 -11 -20 0 -11 -7 -20 -16 -20 -8 0
-13 -4 -10 -9 7 -11 -21 -81 -32 -81 -5 0 -14 -16 -22 -35 -7 -19 -17 -32 -21
-29 -5 3 -14 -4 -21 -16 -7 -11 -20 -20 -29 -20 -9 0 -24 -9 -34 -20 -10 -11
-22 -17 -26 -14 -5 3 -9 0 -9 -5 0 -6 5 -11 10 -11 6 0 10 -5 10 -11 0 -6 -9
-8 -20 -4 -12 4 -20 2 -20 -4 0 -8 -7 -7 -20 1 -14 9 -16 14 -7 20 9 6 9 10
-2 17 -7 5 -11 13 -8 18 4 6 -4 8 -17 6 -51 -10 -36 20 53 103 110 104 160
191 168 297 5 60 4 64 -16 70 -13 3 -47 -1 -78 -9 -110 -28 -245 -42 -426 -44
-176 -1 -387 18 -447 39 -14 5 -34 12 -45 17 -35 13 -43 12 -65 -3 -20 -14
-22 -22 -17 -71 12 -113 92 -241 215 -344 40 -33 42 -38 30 -57 -7 -12 -19
-21 -26 -21 -8 0 -12 -6 -9 -14 7 -17 -20 -26 -48 -16 -18 7 -18 8 5 12 20 4
18 6 -10 7 -27 1 -31 4 -20 11 13 8 13 10 -2 10 -9 0 -19 -4 -22 -9 -4 -5 -16
-4 -31 2 -18 9 -23 19 -21 38 2 19 -1 26 -13 25 -10 -1 -15 6 -14 17 1 14 -4
18 -19 14 -12 -4 -18 -1 -15 6 2 7 -3 18 -12 25 -13 11 -13 12 -1 6 8 -4 5 4
-8 18 -17 19 -20 27 -10 31 9 4 8 6 -4 6 -11 1 -16 8 -13 21 2 11 0 18 -5 15
-12 -7 -51 120 -44 140 4 8 1 15 -6 15 -10 0 -11 22 -5 93 12 166 63 278 174
387 106 105 209 159 345 181 69 11 258 2 326 -15z m4896 -1 c32 -9 91 -31 129
-50 39 -19 61 -27 50 -19 -11 9 -42 27 -70 40 -27 13 -45 24 -40 25 69 5 256
-1 272 -10 16 -8 22 -8 25 1 3 7 11 9 24 3 10 -4 24 -7 31 -6 21 3 50 -54 57
-114 4 -33 9 -127 12 -210 l4 -150 -28 70 c-51 126 -105 207 -176 265 -23 18
-20 13 11 -23 60 -66 109 -144 131 -213 24 -71 38 -245 22 -274 -8 -15 -8 -20
2 -21 9 0 10 -2 1 -5 -7 -3 -9 -12 -7 -19 3 -8 -4 -24 -15 -36 -12 -13 -21
-27 -21 -32 0 -5 -11 -18 -25 -29 -14 -11 -25 -24 -25 -29 0 -5 11 -7 25 -3
15 4 25 2 25 -5 0 -6 -5 -11 -10 -11 -6 0 -18 -16 -27 -35 -9 -19 -20 -32 -24
-30 -4 3 -22 -13 -39 -35 -17 -22 -36 -37 -41 -34 -5 3 -9 2 -8 -3 4 -21 -2
-33 -16 -33 -9 0 -12 -6 -8 -17 3 -10 3 -15 -1 -12 -4 4 -23 -7 -41 -25 -72
-66 -105 -94 -105 -89 0 2 -15 -5 -34 -16 -18 -12 -41 -21 -50 -21 -9 0 -16
-5 -16 -12 0 -6 -3 -9 -6 -6 -3 4 -21 0 -40 -8 -46 -19 -235 -22 -289 -5 -57
19 -125 53 -125 63 0 5 -4 7 -10 3 -5 -3 -17 2 -27 12 -10 10 -30 24 -43 31
-39 20 -84 63 -109 105 -12 20 -27 37 -32 37 -6 0 -7 4 -4 10 3 5 -5 15 -19
21 -14 7 -28 18 -31 27 -4 12 -3 13 10 2 23 -19 18 -1 -10 32 -14 16 -25 27
-25 23 0 -4 -7 1 -16 9 -8 9 -12 21 -8 27 4 7 3 9 -3 6 -13 -8 -55 33 -60 59
-2 11 -7 73 -10 139 -9 203 36 326 168 457 104 104 229 164 394 191 53 9 239
-3 301 -18z m3289 0 c33 -8 86 -25 118 -39 69 -31 75 -26 10 8 l-48 25 89 -3
c49 -2 102 0 118 4 17 6 28 5 28 -2 0 -5 6 -8 13 -5 6 2 22 0 35 -4 14 -6 22
-5 22 2 0 8 5 7 15 -1 9 -7 18 -10 21 -7 5 5 20 -9 66 -63 9 -10 14 -67 16
-192 2 -98 2 -178 -1 -178 -3 0 -15 28 -28 61 -26 71 -77 151 -121 192 -44 39
-44 34 2 -25 79 -99 118 -199 124 -320 5 -77 2 -92 -19 -135 l-24 -48 24 29
24 30 -10 -45 c-11 -46 -33 -78 -46 -65 -5 5 -2 11 5 13 7 3 17 14 23 26 10
20 9 19 -12 -3 -53 -55 -54 -75 -4 -70 l20 2 -20 -16 c-11 -8 -26 -16 -32 -16
-7 0 -12 -10 -10 -22 1 -17 -3 -23 -15 -22 -10 1 -18 -2 -18 -8 0 -5 -13 -23
-30 -41 -16 -18 -30 -35 -30 -39 0 -5 -7 -8 -15 -8 -8 0 -15 -4 -15 -8 0 -5
-9 -20 -21 -33 -11 -13 -25 -31 -30 -39 -7 -12 -10 -13 -17 -2 -7 11 -11 8
-15 -8 -3 -14 -10 -19 -17 -15 -9 6 -9 2 -1 -13 13 -25 -4 -41 -22 -23 -9 9
-7 11 8 5 16 -5 18 -4 8 6 -21 23 -70 -25 -64 -63 1 -5 -3 -6 -9 -2 -6 3 -8
11 -5 16 12 19 -9 8 -32 -17 -18 -19 -30 -24 -48 -20 -14 4 -25 1 -27 -6 -3
-9 -40 -12 -124 -13 -104 0 -131 4 -209 28 -49 16 -95 35 -100 42 -6 7 -25 16
-44 20 -31 7 -45 16 -96 65 -12 11 -27 20 -34 20 -8 0 -11 6 -7 15 3 9 0 15
-9 15 -8 0 -15 4 -15 9 0 5 -9 13 -21 16 -11 4 -18 9 -15 13 9 8 -25 43 -35
36 -5 -3 -6 3 -2 12 4 12 3 15 -5 10 -7 -4 -12 -2 -12 4 0 6 -5 8 -10 5 -6 -4
-9 -1 -8 7 2 7 -3 12 -10 10 -8 -1 -11 2 -7 8 3 5 1 10 -5 10 -6 0 -9 4 -5 9
3 5 1 12 -4 16 -6 3 -8 12 -4 21 3 9 0 14 -8 12 -7 -2 -13 2 -14 9 0 6 -3 15
-7 19 -11 10 -10 26 1 20 5 -3 2 13 -5 35 -8 23 -15 75 -16 117 -4 330 244
596 592 636 54 6 188 -4 255 -19z m-4967 0 c42 -9 107 -30 145 -49 37 -18 67
-29 67 -25 0 4 -18 16 -40 26 -22 10 -40 21 -40 25 0 9 204 2 243 -7 15 -4 27
-11 27 -17 0 -5 4 -7 8 -4 5 3 25 -6 44 -19 34 -23 42 -39 54 -105 7 -36 19
-178 18 -210 -3 -124 -2 -122 -32 -33 -30 88 -79 168 -138 223 -32 30 -31 27
9 -20 51 -60 84 -123 113 -215 14 -47 18 -90 18 -196 -1 -125 -3 -139 -22
-160 -14 -14 -20 -31 -18 -46 3 -15 1 -21 -6 -17 -8 5 -9 1 -4 -12 6 -16 3
-15 -18 5 -16 15 -31 21 -42 17 -9 -4 -14 -9 -11 -12 3 -3 -6 -17 -21 -31 -22
-20 -23 -24 -7 -18 49 16 72 16 84 1 12 -14 10 -16 -8 -16 -12 0 -21 -6 -21
-15 0 -8 -4 -15 -10 -15 -5 0 -10 -6 -10 -13 0 -14 -83 -87 -99 -87 -6 0 -11
-5 -11 -11 0 -5 -5 -7 -11 -4 -6 4 -17 -3 -26 -15 -8 -12 -21 -19 -29 -16 -8
3 -14 -1 -14 -10 0 -22 -23 -42 -53 -46 -13 -2 -32 -10 -41 -17 -9 -7 -23 -11
-31 -7 -9 3 -15 0 -15 -10 0 -12 -6 -15 -22 -11 -14 4 -27 0 -38 -13 -8 -10
-33 -21 -54 -24 -21 -4 -42 -9 -47 -12 -5 -3 -9 -1 -9 4 0 6 -7 13 -16 16 -8
3 -12 2 -9 -4 9 -14 -8 -13 -23 2 -6 6 -41 12 -77 12 -64 1 -85 12 -69 38 4 7
0 7 -12 0 -14 -7 -29 -6 -54 5 -19 9 -42 17 -50 19 -8 2 -30 19 -48 38 -31 34
-50 48 -37 26 3 -5 1 -10 -4 -10 -6 0 -11 8 -12 18 0 9 -3 12 -5 6 -6 -15 -46
-5 -41 10 4 12 -50 56 -69 56 -7 0 -16 4 -19 10 -4 6 1 7 12 4 16 -5 15 -3 -2
11 -11 9 -19 21 -17 26 1 6 -2 8 -7 5 -9 -6 -47 43 -43 56 1 4 -9 18 -21 32
-23 24 -47 86 -47 120 0 9 -4 16 -8 16 -5 0 -9 6 -10 13 0 6 -4 44 -8 82 -8
87 14 214 51 287 135 270 441 407 763 343z m-3759 -45 c-149 -90 -253 -216
-305 -369 -32 -96 -37 -52 -19 184 4 50 8 97 10 105 5 24 41 86 47 80 3 -3 14
2 24 11 11 9 37 17 59 18 109 8 251 18 259 19 5 1 -29 -21 -75 -48z m1581 35
c6 -3 10 -2 10 3 0 8 188 7 235 -1 20 -4 21 -6 17 -82 -2 -33 -4 -35 -37 -35
-71 0 -127 -55 -138 -136 -4 -28 -6 -29 -49 -26 -40 3 -48 0 -67 -25 -19 -23
-22 -37 -19 -88 2 -33 8 -68 12 -77 7 -16 2 -18 -40 -18 -27 0 -65 -8 -84 -18
-51 -25 -61 -65 -56 -220 3 -70 5 -178 5 -239 1 -67 5 -113 11 -113 18 0 23
50 24 262 l1 210 28 24 28 24 528 0 c517 0 528 0 549 -20 15 -15 22 -33 22
-59 l0 -39 -65 -4 c-55 -3 -70 -9 -102 -36 -91 -78 -158 -80 -232 -9 -48 47
-88 61 -141 50 -36 -7 -57 -37 -41 -57 6 -7 36 -16 67 -20 48 -6 64 -13 106
-51 81 -72 151 -71 247 5 49 39 52 40 103 32 l53 -7 -2 -250 c-3 -272 -7 -323
-26 -342 -9 -10 -146 -14 -600 -19 l-587 -6 -19 23 c-21 26 -21 24 -25 809 -2
457 8 516 91 549 40 16 171 20 193 6z m995 3 c73 -14 91 -68 86 -249 -1 -33
-4 -37 -58 -59 -59 -23 -102 -50 -50 -31 16 6 47 11 71 11 l42 0 -2 -516 -1
-515 -34 -35 c-18 -19 -39 -34 -46 -34 -16 0 -16 1 2 36 12 24 15 91 15 404 0
218 -4 390 -10 411 -15 55 -49 80 -112 84 -29 2 -54 4 -55 5 -1 0 5 16 13 35
21 52 18 117 -8 150 -19 25 -26 27 -70 23 l-48 -5 0 31 c0 72 -65 136 -138
136 l-33 0 3 57 3 57 80 4 c43 1 81 5 84 7 5 5 234 -1 266 -7z m2120 -1 c19 7
155 10 155 3 0 -3 21 -4 48 -2 42 3 45 2 32 -11 -8 -9 -38 -28 -67 -44 -72
-39 -176 -134 -220 -200 -20 -30 -51 -92 -69 -137 l-33 -81 -1 60 c-2 114 1
310 5 330 2 11 4 23 4 27 1 4 11 18 24 31 16 17 32 23 60 22 20 -1 37 3 38 9
0 7 3 6 5 -1 3 -7 12 -9 19 -6z m3522 -37 c-91 -52 -168 -115 -219 -180 -50
-63 -104 -166 -119 -224 -9 -37 -14 -45 -19 -31 -10 28 -1 254 13 346 6 37 41
107 52 103 6 -3 25 0 41 6 16 7 74 14 128 16 55 2 101 5 102 7 2 2 25 3 52 3
l49 0 -80 -46z m-4992 26 c17 1 32 2 35 3 3 1 25 4 50 7 l45 4 -60 -31 c-172
-90 -307 -241 -356 -398 -14 -46 -18 -52 -22 -31 -18 96 10 332 46 388 16 24
106 53 174 56 17 1 35 4 39 9 4 4 10 4 13 0 3 -5 20 -7 36 -7z m3222 -11 c36
-18 55 -35 64 -58 11 -26 13 -146 10 -647 -3 -549 -1 -617 12 -629 9 -7 25
-10 37 -6 20 6 20 10 20 641 l0 634 28 30 c49 55 73 59 450 60 316 0 346 -1
386 -19 48 -21 78 -57 96 -116 14 -44 28 -1165 16 -1230 -10 -53 -43 -65 -175
-65 l-111 0 -24 38 c-24 38 -56 71 -56 57 0 -4 -7 -2 -15 5 -18 15 -211 26
-279 16 -27 -4 -58 -17 -74 -31 -67 -60 -38 -52 -247 -66 -148 -9 -325 -6
-359 7 -34 13 -37 78 -33 654 3 412 7 578 16 611 20 74 95 134 172 138 8 1 38
-10 66 -24z m-4480 4 c9 -9 19 -9 42 0 55 24 102 -16 87 -74 -9 -36 -69 -94
-104 -101 -25 -5 -34 1 -70 41 -43 50 -53 86 -32 126 12 21 59 26 77 8z m-117
-145 c14 -9 50 -41 81 -71 l56 -55 65 66 c63 65 65 66 116 66 72 0 102 -29
102 -98 0 -58 -31 -111 -111 -191 l-54 -53 -115 6 c-63 4 -121 8 -128 8 -17 2
-118 111 -139 151 -55 106 38 230 127 171z m4290 -49 c8 -5 11 -172 9 -588 -1
-438 1 -588 11 -608 27 -59 16 -58 618 -62 621 -5 584 0 625 -83 39 -82 78
-77 -583 -81 -563 -4 -586 -5 -617 -24 -18 -11 -32 -23 -31 -27 1 -4 -3 -17
-10 -29 -7 -12 -15 -71 -18 -130 -7 -126 -12 -133 -92 -133 -85 0 -88 4 -96
122 -12 181 -45 220 -184 218 -48 0 -324 0 -615 1 -391 0 -536 -3 -561 -12
-21 -7 -44 -28 -60 -53 -25 -38 -26 -46 -26 -178 0 -134 -1 -138 -22 -143 -13
-3 -36 -2 -53 3 -24 7 -32 17 -43 54 -7 25 -20 49 -28 52 -13 5 -14 2 -9 -11
18 -41 28 -91 22 -106 -7 -19 -52 -23 -62 -7 -4 6 -7 57 -7 113 1 122 -14 215
-36 241 -38 43 -66 46 -388 46 -338 0 -384 6 -384 47 0 37 27 81 63 100 28 16
70 18 351 21 175 2 329 8 342 12 13 5 33 24 44 42 18 30 20 51 20 215 l0 181
35 12 c37 12 131 5 140 -10 3 -5 7 -92 8 -193 3 -202 10 -227 65 -249 18 -7
232 -10 657 -11 568 0 634 2 666 17 72 34 69 9 69 638 0 310 -1 572 -3 583 -2
16 5 21 33 25 45 7 136 4 150 -5z m-4892 -73 c19 -12 13 -993 -6 -1000 -7 -2
-19 -10 -26 -18 -17 -16 -50 -19 -41 -4 4 7 -2 9 -17 5 -14 -3 -36 2 -55 15
l-33 20 0 277 c0 153 -3 369 -7 479 -3 111 -3 209 0 218 5 13 22 16 89 16 46
0 89 -4 96 -8z m397 -44 c65 -94 104 -158 97 -161 -6 -4 -26 -4 -97 1 -35 3
-75 65 -75 117 0 64 43 88 75 43z m738 13 c38 -15 43 -55 12 -107 -14 -24 -34
-48 -45 -54 -21 -11 -90 -9 -90 3 0 5 -4 5 -10 2 -5 -3 -10 -4 -10 -2 0 12
108 167 116 167 1 0 14 -4 27 -9z m5429 -16 c12 -5 14 -67 10 -378 -4 -347 -5
-373 -23 -391 -19 -21 -58 -24 -125 -12 -26 5 -36 13 -41 34 -13 47 -8 701 5
714 6 6 38 17 69 24 68 14 86 16 105 9z m-7542 -420 c42 -22 50 -61 50 -236 0
-88 2 -159 4 -159 3 0 16 4 30 10 l26 10 0 149 c0 82 4 161 9 174 24 62 125
91 184 52 l28 -18 -3 -183 c-3 -178 -4 -184 -26 -200 -12 -8 -20 -19 -17 -24
3 -5 -4 -11 -15 -15 -11 -4 -18 -10 -15 -15 5 -8 -45 -46 -57 -42 -5 1 -8 -4
-8 -12 0 -7 -15 -17 -32 -21 -43 -11 -138 -13 -138 -3 0 4 -11 10 -25 14 -14
3 -25 11 -25 17 0 6 -3 7 -7 4 -8 -9 -32 24 -33 46 0 9 -8 17 -18 17 -19 0
-51 72 -77 177 -17 70 -13 198 8 241 19 42 94 49 157 17z m2670 -336 c0 -6 7
-17 15 -25 8 -9 15 -12 15 -9 0 4 19 -21 42 -56 23 -35 48 -70 55 -77 7 -7 13
-19 13 -27 0 -7 6 -16 13 -18 6 -3 2 -6 -10 -6 -12 -1 -25 4 -28 9 -3 6 -19
10 -36 10 -28 0 -29 -2 -29 -45 0 -49 17 -59 51 -29 27 24 99 31 111 10 5 -9
16 -16 24 -16 8 0 13 -4 9 -9 -3 -5 2 -17 11 -25 14 -15 14 -16 -3 -16 -11 0
-23 -4 -29 -10 -5 -5 -23 -9 -39 -10 -62 0 -118 -1 -124 -2 -52 -5 -92 85 -91
202 1 95 10 160 21 160 5 0 9 -5 9 -11z m2984 -127 c-1 -82 -7 -128 -18 -154
-16 -38 -53 -71 -68 -62 -5 3 -14 1 -21 -4 -13 -11 -181 -9 -209 3 -23 9 -24
27 -1 18 12 -5 15 -2 10 10 -4 12 2 21 21 31 42 22 138 123 205 214 44 60 63
80 71 72 7 -7 10 -54 10 -128z m-6217 96 c13 -12 23 -25 23 -30 0 -10 35 -60
66 -95 12 -13 32 -39 45 -58 13 -19 28 -35 32 -35 23 0 84 -84 68 -94 -19 -12
-236 5 -250 19 -11 11 -16 51 -19 165 -3 82 -1 150 4 150 4 0 18 -10 31 -22z
m4894 -10 c16 -18 29 -39 29 -45 0 -7 5 -13 10 -13 6 0 10 -6 10 -12 0 -7 35
-44 77 -83 121 -110 133 -122 133 -139 0 -18 -25 -20 -165 -17 -144 4 -154 16
-157 202 -2 150 9 168 63 107z m3293 2 c7 0 23 -18 36 -41 14 -22 31 -47 38
-54 6 -7 12 -18 12 -23 0 -10 29 -39 45 -44 6 -2 9 -9 9 -16 -1 -7 0 -11 3 -9
2 3 21 -12 41 -34 20 -21 42 -39 49 -39 11 0 33 -30 33 -45 0 -4 -51 -5 -112
-3 -137 4 -171 21 -184 91 -10 57 -6 148 7 164 7 7 7 13 2 13 -5 0 -7 15 -5
33 3 17 7 26 9 20 3 -7 10 -13 17 -13z m-6869 -103 c0 -132 -4 -138 -79 -107
-73 29 -83 42 -61 77 10 16 29 38 42 50 12 12 23 24 23 27 0 11 56 64 65 62 6
-2 10 -47 10 -109z m3247 108 c10 -4 13 -31 11 -115 -2 -130 -23 -184 -77
-196 -33 -8 -225 -8 -233 -1 -2 3 9 19 26 36 17 18 31 30 31 27 0 -5 50 38
106 92 24 23 44 49 44 57 0 8 11 22 25 31 14 9 25 23 25 30 0 8 7 17 15 20 8
4 12 10 9 15 -6 10 -1 11 18 4z m4948 -171 c0 -74 -27 -117 -82 -130 -5 -1 -9
-3 -10 -4 -2 -1 -44 -4 -95 -5 -129 -4 -136 7 -53 85 35 33 60 60 56 60 -5 0
2 9 15 20 19 15 39 19 97 20 l72 0 0 -46z m-8290 -62 c25 -11 53 -22 64 -26
15 -5 16 -9 6 -21 -7 -8 -21 -15 -30 -15 -10 0 -20 -5 -22 -11 -2 -7 -36 -11
-88 -12 -98 0 -132 7 -123 28 3 8 9 12 14 9 5 -3 9 1 9 8 0 7 19 31 43 55 41
41 42 41 62 23 11 -11 40 -28 65 -38z m1124 -143 c14 -13 20 -33 20 -66 1 -46
0 -48 -34 -60 -49 -17 -310 -16 -310 1 0 30 135 121 220 147 34 10 81 1 104
-22z m6130 -269 c17 0 37 -5 44 -12 8 -8 12 -8 12 -1 0 6 14 10 30 9 17 0 30
-3 30 -6 0 -3 -35 -22 -79 -43 -45 -21 -104 -61 -140 -93 -95 -86 -188 -228
-206 -314 -17 -83 -23 -55 -19 90 9 266 22 309 115 356 37 18 58 23 83 18 20
-3 36 -1 40 5 5 7 15 7 32 1 14 -6 40 -10 58 -10z m-4354 -29 c35 -11 66 -19
68 -17 2 2 -13 9 -32 16 -20 6 -38 15 -41 20 -8 13 167 9 256 -5 129 -20 136
-23 150 -58 14 -37 13 -33 33 -157 20 -134 27 -242 16 -260 -8 -13 -10 -13
-10 2 0 31 -30 107 -66 168 -35 60 -143 185 -152 176 -2 -3 10 -18 28 -33 44
-36 123 -159 150 -231 17 -45 23 -83 25 -179 1 -68 -1 -123 -6 -123 -5 0 -6
-6 -3 -14 3 -8 -2 -26 -11 -40 -10 -14 -14 -26 -11 -26 4 0 1 -10 -6 -22 -7
-13 -11 -29 -10 -35 2 -8 -4 -10 -15 -6 -15 5 -16 3 -5 -8 14 -16 16 -33 2
-24 -5 3 -7 0 -4 -9 3 -9 -3 -17 -17 -21 -17 -6 -19 -9 -8 -16 11 -7 10 -9 -3
-9 -10 0 -20 -11 -24 -25 -3 -14 -18 -32 -33 -40 -14 -8 -20 -14 -13 -15 7 0
11 -4 7 -10 -3 -5 -12 -7 -20 -3 -10 3 -13 1 -10 -9 8 -21 -34 -67 -44 -49 -6
9 -11 10 -15 2 -4 -6 -2 -11 3 -11 6 0 11 -5 11 -10 0 -6 -8 -10 -17 -8 -14 2
-17 -3 -16 -22 1 -14 0 -19 -3 -12 -5 10 -9 10 -20 1 -8 -6 -11 -15 -8 -20 3
-5 -1 -9 -8 -9 -7 0 -29 -13 -48 -29 -62 -51 -145 -85 -241 -99 -57 -8 -172 1
-225 19 -41 13 -167 88 -177 106 -5 7 -13 10 -19 7 -7 -4 -8 -2 -4 4 6 10 -28
55 -36 47 -2 -2 -26 27 -53 65 -28 38 -55 69 -62 70 -18 0 -27 21 -13 30 7 4
1 9 -18 13 -30 6 -40 34 -18 50 6 5 1 5 -11 2 -14 -4 -23 -2 -23 4 0 6 4 11
10 11 5 0 2 9 -7 20 -9 10 -18 26 -19 35 -1 9 -10 27 -18 41 -22 33 -32 189
-17 284 23 153 126 306 271 404 67 44 190 86 285 94 98 10 248 -3 325 -27z
m1595 10 c39 -11 79 -23 90 -26 11 -3 3 3 -17 15 -21 11 -38 22 -38 23 0 1 76
2 170 2 93 0 170 -4 170 -9 0 -4 7 -5 16 -2 9 4 23 1 30 -5 8 -6 14 -8 14 -3
0 18 32 -52 35 -78 2 -15 6 -31 9 -36 15 -25 33 -362 18 -362 -5 0 -12 17 -15
38 -11 67 -96 214 -157 271 -75 70 -93 74 -25 6 89 -88 131 -161 159 -278 28
-112 22 -273 -12 -325 -9 -13 -17 -33 -17 -43 -1 -10 -21 -37 -44 -60 -23 -23
-34 -39 -24 -35 15 5 14 3 -3 -12 -11 -9 -19 -23 -16 -31 3 -10 -2 -11 -18 -6
-20 6 -22 4 -17 -14 3 -11 1 -24 -4 -27 -5 -3 -7 -10 -4 -15 4 -5 1 -9 -4 -9
-6 0 -11 -7 -11 -15 0 -15 -98 -116 -137 -142 -13 -9 -20 -20 -16 -26 3 -6 1
-7 -5 -3 -11 7 -72 -19 -72 -30 0 -3 5 -2 12 2 7 4 8 3 4 -4 -4 -6 -14 -8 -23
-5 -12 5 -14 3 -8 -7 5 -8 4 -11 -3 -6 -6 3 -39 -3 -74 -15 -54 -18 -78 -21
-173 -16 -116 5 -151 14 -227 54 -27 13 -48 22 -48 19 0 -3 -11 5 -24 17 -13
12 -40 37 -60 56 -20 19 -36 38 -36 43 0 6 -7 8 -15 4 -10 -4 -15 1 -15 14 0
12 -5 17 -14 14 -9 -4 -18 7 -26 32 -9 25 -15 32 -20 23 -6 -9 -11 -5 -15 14
-4 14 -13 31 -21 38 -8 6 -11 15 -8 20 3 5 -2 12 -10 15 -9 3 -13 10 -10 15 3
5 -2 9 -10 9 -11 0 -16 9 -16 30 0 21 -5 30 -16 30 -8 0 -12 5 -9 10 3 5 0 10
-8 10 -10 0 -17 15 -21 48 -4 26 -9 70 -13 97 -47 344 162 621 522 691 91 18
240 11 330 -15z m915 15 c0 5 29 9 65 9 36 0 65 -2 65 -5 0 -3 40 -5 90 -5 49
0 90 -1 90 -3 0 -2 -30 -16 -66 -33 -61 -27 -164 -87 -164 -96 0 -2 19 7 41
19 105 58 129 69 200 92 97 32 220 42 324 27 74 -11 197 -45 220 -60 18 -13
65 -31 65 -25 0 3 -34 21 -75 41 -41 19 -75 37 -75 39 0 2 19 1 43 -2 23 -2
108 -5 188 -6 101 0 153 -5 170 -14 13 -7 20 -13 15 -14 -5 0 -2 -8 7 -17 8
-10 16 -22 18 -28 1 -5 3 -14 5 -20 23 -71 33 -149 34 -270 1 -77 0 -147 0
-155 -1 -8 -14 30 -29 85 -29 104 -70 212 -96 252 -22 33 -67 53 -99 45 -41
-11 -130 -103 -144 -149 -13 -45 -16 -103 -4 -103 4 0 18 21 31 46 36 67 97
116 141 112 80 -7 170 -202 170 -368 0 -132 -3 -171 -14 -167 -7 3 -11 -11
-11 -39 0 -32 -3 -43 -12 -40 -7 3 -12 2 -11 -2 1 -4 -3 -17 -10 -28 -6 -12
-9 -24 -6 -27 3 -3 -4 -10 -15 -17 -12 -6 -18 -16 -15 -22 5 -7 1 -9 -9 -5
-13 5 -17 1 -17 -18 0 -18 -4 -23 -16 -18 -13 5 -15 2 -10 -15 6 -17 4 -21 -7
-16 -8 3 -17 -2 -20 -10 -4 -9 -1 -16 5 -16 6 0 1 -9 -12 -20 -13 -11 -26 -18
-29 -15 -3 4 1 11 9 16 13 9 13 10 0 6 -8 -2 -17 -15 -20 -30 -3 -14 -20 -47
-38 -72 -36 -51 -85 -77 -179 -95 -72 -13 -447 -12 -521 1 -61 12 -117 44
-147 86 -11 16 -35 43 -53 60 -18 18 -30 37 -27 43 3 5 -1 10 -9 10 -9 0 -16
6 -16 14 0 8 -7 22 -16 30 -8 9 -13 20 -9 26 4 6 -1 7 -12 3 -10 -3 -15 -2
-10 2 4 5 -7 23 -24 41 -30 31 -31 33 -8 28 18 -4 16 0 -11 15 -19 11 -30 20
-24 21 7 0 4 15 -8 40 -22 45 -26 62 -36 180 -11 131 8 216 71 323 47 80 74
101 115 92 31 -6 89 -61 118 -112 42 -75 62 -6 22 75 -13 25 -45 64 -73 88
-63 56 -110 60 -148 14 -28 -33 -76 -149 -106 -260 -11 -40 -23 -76 -26 -79
-9 -8 -4 256 6 358 5 46 13 89 19 96 5 6 7 15 4 18 -4 3 5 9 19 12 14 4 28 13
31 20 3 8 13 11 24 8 11 -2 23 0 27 7 5 8 10 8 21 -1 8 -6 14 -8 14 -3z m2369
-5 c55 -11 127 -33 163 -50 60 -29 62 -30 33 -6 -16 14 -40 28 -52 31 -13 4
-23 10 -23 16 0 12 257 4 291 -10 15 -6 29 -8 32 -6 3 3 8 -4 12 -15 3 -12 13
-21 21 -21 8 0 12 -4 9 -10 -3 -5 1 -20 8 -32 11 -17 16 -71 20 -198 l5 -175
-23 67 c-31 90 -102 194 -183 268 -97 89 -93 73 7 -27 107 -108 155 -199 173
-324 10 -68 9 -82 -3 -90 -10 -6 -11 -9 -1 -9 10 0 11 -11 6 -42 -3 -24 -7
-53 -7 -65 -1 -11 -6 -19 -11 -15 -5 3 -7 -2 -3 -11 3 -9 2 -19 -2 -21 -5 -3
-7 -17 -6 -31 2 -14 -1 -25 -6 -25 -6 0 -7 -4 -4 -10 3 -6 2 -10 -4 -10 -5 0
-8 -9 -6 -20 2 -11 -1 -20 -7 -20 -5 0 -8 -7 -4 -15 3 -8 0 -15 -6 -15 -14 0
-37 -31 -38 -50 0 -8 -12 -29 -28 -45 -15 -17 -28 -37 -30 -45 -2 -8 -7 -17
-10 -20 -4 -3 -23 -27 -42 -54 -91 -131 -228 -204 -402 -213 -179 -10 -303 33
-405 139 -20 21 -42 38 -49 38 -6 0 -15 11 -18 24 -3 14 -14 27 -25 31 -10 3
-23 17 -30 32 -6 14 -23 34 -36 45 -13 10 -26 31 -30 47 -3 16 -13 35 -21 41
-7 7 -11 16 -8 21 3 5 1 9 -4 9 -8 0 -35 69 -37 95 -1 6 -9 25 -18 43 -10 17
-15 32 -11 32 4 0 2 6 -4 13 -5 7 -9 59 -8 122 3 131 26 213 86 303 67 100
148 172 256 226 148 74 301 92 483 57z m-8636 -5 c21 -2 44 -9 50 -15 8 -8 13
-59 15 -143 2 -141 -9 -203 -51 -268 -28 -42 -67 -123 -102 -208 -27 -66 -62
-115 -77 -106 -4 3 -8 0 -8 -5 0 -24 -21 -9 -26 18 -10 49 -31 60 -119 63
l-80 3 0 255 c0 271 3 328 17 336 4 3 5 10 2 16 -4 6 -2 8 3 5 6 -4 16 0 23 8
7 8 18 15 24 15 6 0 4 -5 -4 -10 -10 -7 -11 -10 -2 -10 7 0 15 7 19 16 3 9 13
14 24 11 11 -3 22 -1 25 4 3 5 9 7 14 4 4 -3 -7 -48 -26 -101 -51 -142 -47
-196 16 -229 51 -26 88 -19 131 24 50 50 50 74 -1 203 -22 56 -40 105 -40 109
0 4 18 6 40 4 22 -2 42 1 46 6 3 5 15 7 27 4 12 -3 39 -7 60 -9z m2142 -19
c91 -30 113 -29 33 2 -53 20 -53 20 -18 21 19 1 100 1 179 1 198 -2 224 -17
236 -129 19 -181 24 -294 16 -357 -1 -5 -10 13 -19 41 -20 58 -90 180 -127
221 -14 16 -5 -3 19 -40 24 -38 56 -100 71 -140 30 -82 47 -227 34 -290 -16
-71 -42 -157 -50 -157 -3 0 -17 -22 -30 -50 -13 -27 -27 -50 -30 -50 -4 0 -10
-11 -13 -25 -3 -13 -19 -31 -34 -39 -16 -8 -34 -26 -40 -41 -7 -14 -17 -23
-22 -20 -6 3 -10 -3 -10 -15 0 -12 -4 -19 -9 -15 -6 3 -14 -2 -19 -11 -13 -23
-43 -2 -74 49 -108 181 -292 251 -460 175 -138 -64 -228 -217 -172 -296 21
-31 52 -27 102 13 62 49 129 68 216 63 60 -4 85 -12 162 -51 49 -26 96 -47
103 -47 6 0 25 14 41 32 27 29 29 30 23 7 -11 -44 -33 -60 -83 -59 -66 2 -67
2 -74 -23 -5 -19 -8 -20 -17 -7 -7 10 -12 11 -15 4 -3 -6 -21 -10 -42 -8 -20
2 -31 1 -24 -2 6 -3 12 -10 12 -15 0 -5 -9 -4 -19 3 -11 6 -17 18 -14 27 3 9
-1 7 -10 -5 -12 -15 -24 -20 -46 -16 -19 3 -28 9 -24 16 3 6 -3 2 -14 -9 -11
-11 -18 -26 -16 -32 4 -9 -3 -9 -23 2 -16 8 -39 15 -50 15 -12 0 -27 7 -34 15
-7 9 -19 14 -26 11 -6 -2 -20 2 -31 9 -10 8 -32 15 -50 15 -36 0 -80 45 -90
92 -3 15 -9 31 -13 33 -5 3 -6 -5 -3 -17 4 -20 3 -21 -9 -7 -7 8 -21 18 -30
22 -10 3 -18 12 -18 19 0 9 3 9 11 -2 9 -13 10 -13 6 0 -2 8 -10 14 -17 12
-14 -3 -50 26 -50 41 0 6 8 3 18 -6 10 -10 23 -17 28 -17 4 0 -3 8 -16 17 -14
10 -29 17 -34 15 -5 -2 -6 3 -3 11 4 10 -2 13 -19 11 -13 -1 -24 2 -24 7 0 5
6 9 13 10 6 0 2 4 -11 10 -13 5 -21 13 -18 18 3 5 -1 12 -10 15 -8 3 -13 10
-9 16 3 5 -5 22 -20 37 -14 16 -23 34 -20 41 2 6 -1 12 -9 12 -7 0 -12 10 -11
23 1 12 -4 34 -12 50 -7 15 -10 27 -6 27 5 0 2 4 -4 8 -20 12 -28 178 -13 243
26 113 84 220 168 312 26 29 34 41 18 27 -80 -68 -158 -183 -191 -281 -14 -40
-26 -74 -28 -75 -7 -8 5 305 13 336 6 19 10 46 10 60 0 27 51 80 75 80 8 0 17
5 20 10 4 6 18 10 33 10 15 0 87 3 160 6 72 3 132 3 132 1 0 -3 -29 -20 -64
-37 -35 -17 -79 -45 -97 -61 -31 -26 -29 -26 21 6 30 20 80 45 110 56 116 43
150 49 290 45 113 -2 148 -7 215 -29z m1130 21 c3 -3 -9 -11 -27 -18 -59 -24
-196 -119 -238 -168 -56 -63 -116 -166 -146 -249 l-25 -68 6 175 c3 96 12 201
19 232 7 32 10 61 7 64 -3 4 -1 4 6 0 6 -3 15 0 20 8 4 8 30 18 57 23 55 9
312 10 321 1z m1616 -3 c0 -5 -26 -23 -58 -40 -111 -57 -200 -134 -259 -225
-42 -65 -52 -87 -79 -170 l-25 -75 6 180 c9 268 7 253 39 283 16 15 34 27 40
27 21 2 65 17 65 24 0 11 270 7 271 -4z m-4141 -8 c8 -4 37 -5 63 -4 47 3 49
2 88 -47 22 -27 37 -56 35 -63 -3 -7 -2 -13 2 -13 10 0 10 5 15 -637 6 -641 5
-645 -52 -690 -28 -22 -43 -26 -96 -26 -69 1 -91 8 -78 26 5 7 10 26 12 42 2
17 6 32 11 35 4 3 7 12 7 20 1 14 27 93 45 135 4 11 10 40 12 65 2 25 10 61
19 80 15 36 25 76 34 143 3 20 8 37 12 37 6 0 7 6 11 110 3 68 0 77 -29 118
-37 53 -74 62 -242 62 -121 0 -150 3 -163 16 -18 17 -22 54 -5 54 5 0 7 5 4
10 -3 6 -2 10 3 10 6 0 10 10 10 23 1 12 8 72 17 132 10 71 13 133 8 175 -3
36 -7 77 -7 93 -1 15 -5 27 -9 27 -5 0 -1 7 7 16 9 8 16 19 16 24 0 10 58 21
138 25 35 2 66 5 68 8 6 6 21 3 44 -6z m-429 -7 c42 -12 82 -51 103 -102 18
-41 21 -119 7 -133 -18 -18 -118 -220 -125 -250 -3 -16 -7 -51 -8 -77 -1 -27
-5 -48 -10 -48 -4 0 -8 -7 -8 -15 0 -13 30 -15 208 -15 114 0 224 -4 245 -9
75 -18 112 -85 69 -124 -25 -22 -111 -33 -215 -27 -48 3 -87 2 -87 -2 0 -5 -6
-8 -14 -8 -22 0 -30 -19 -16 -35 10 -11 37 -15 116 -15 115 0 146 -8 169 -44
16 -23 15 -27 -1 -55 -20 -33 -35 -37 -209 -46 -105 -6 -125 -15 -125 -58 0
-16 5 -18 28 -13 15 4 72 9 128 13 86 5 105 3 127 -12 47 -30 30 -88 -31 -104
-37 -10 -185 -17 -210 -10 -18 5 -37 -24 -29 -45 5 -13 22 -16 95 -16 99 0
129 -12 118 -48 -7 -22 -32 -40 -64 -47 -9 -2 -28 -7 -41 -11 -16 -5 -22 -4
-17 4 4 7 -3 8 -21 3 -16 -4 -46 -2 -71 5 -23 7 -49 11 -57 8 -8 -4 -15 -2
-15 3 0 6 -12 10 -27 9 -16 -1 -38 4 -50 10 -12 6 -36 10 -52 9 -18 -1 -28 2
-24 8 4 6 -9 8 -35 5 -37 -5 -40 -4 -26 9 8 9 12 18 9 21 -3 4 -10 0 -16 -8
-8 -13 -10 -13 -20 0 -9 13 -10 12 -5 -2 4 -14 -1 -17 -24 -15 -17 1 -30 8
-30 15 0 6 -4 12 -10 12 -5 0 -10 -4 -10 -10 0 -5 -7 -10 -16 -10 -9 0 -12 5
-8 12 5 8 0 9 -14 6 -16 -5 -22 -2 -22 10 0 12 -3 13 -11 5 -9 -9 -23 -6 -57
13 -25 14 -51 23 -59 19 -11 -3 -13 -1 -9 10 3 9 0 15 -8 15 -27 0 -33 31 -42
222 -8 175 -6 183 50 197 66 16 83 37 120 141 39 114 55 147 111 225 24 33 57
91 73 128 l31 68 -21 63 c-27 82 -21 108 34 135 48 23 76 26 129 11z m7431
-521 c-1 -261 -7 -459 -12 -469 -6 -12 -27 -20 -59 -25 -60 -8 -111 13 -111
48 -1 12 -3 198 -6 412 -7 449 -13 418 91 460 111 45 100 91 97 -426z m-6566
252 c11 -12 1 -706 -11 -733 -9 -22 -55 -24 -95 -3 -36 19 -40 55 -10 83 l20
19 -20 25 c-11 15 -20 31 -20 37 0 6 -3 11 -7 11 -5 0 -7 -40 -5 -90 2 -49 1
-90 -3 -90 -3 0 -15 5 -26 10 -18 10 -19 25 -19 363 0 261 3 356 12 365 14 14
169 17 184 3z m3242 -28 c18 -11 22 -20 17 -36 -3 -12 -9 -146 -12 -297 -4
-263 -5 -276 -25 -293 -12 -10 -27 -16 -34 -13 -7 3 -16 1 -19 -3 -7 -12 -85
12 -95 30 -5 8 -10 145 -12 306 -3 282 -2 292 17 304 47 29 118 30 163 2z
m-4690 -673 c1 -157 0 -295 -3 -308 -5 -19 -12 -22 -48 -21 l-42 1 38 8 c20 4
40 10 43 13 8 7 -5 67 -14 67 -4 0 -20 11 -35 25 -15 14 -27 21 -27 15 0 -6
-4 -9 -9 -6 -4 3 -6 17 -3 31 2 14 0 25 -4 25 -5 0 -10 69 -12 153 -1 83 -5
174 -8 200 -8 66 12 89 75 85 l46 -3 3 -285z m3149 -166 c10 -14 25 -34 34
-44 10 -10 29 -38 43 -63 15 -25 34 -48 42 -51 8 -3 13 -10 10 -15 -3 -5 2
-12 12 -17 12 -6 5 -9 -28 -13 -40 -5 -45 -9 -45 -31 0 -17 7 -27 26 -34 34
-12 59 -2 59 24 0 24 24 26 42 3 7 -9 30 -34 52 -55 21 -22 35 -42 32 -45 -3
-4 -6 -1 -6 5 0 7 -5 12 -11 12 -5 0 -7 -4 -4 -10 3 -5 -1 -10 -9 -10 -9 0
-16 6 -17 13 0 6 -3 7 -5 2 -5 -13 -201 -7 -227 7 -35 18 -48 72 -46 195 2
159 9 180 46 127z m1651 -51 c17 -23 32 -47 32 -52 0 -6 5 -11 10 -11 6 0 10
-7 10 -15 0 -7 8 -18 18 -24 20 -11 18 -12 -60 -30 -81 -19 -78 -23 -78 87 0
54 3 101 6 105 7 7 16 -1 62 -60z m1619 13 c18 -34 63 -94 96 -128 9 -10 17
-20 17 -22 0 -3 27 -32 61 -65 76 -77 74 -91 -14 -91 -80 0 -168 16 -179 33
-14 22 -27 81 -28 127 -1 131 0 154 11 166 16 19 16 19 36 -20z m-4887 9 c7
-8 10 -15 7 -15 -7 0 30 -45 73 -89 19 -19 27 -29 17 -21 -14 10 -23 11 -45 1
l-27 -13 24 -19 c25 -20 61 -26 61 -9 0 6 7 10 15 10 8 0 15 -5 15 -11 0 -6
25 -35 55 -64 30 -30 55 -58 55 -63 0 -5 -15 -12 -32 -15 -55 -8 -192 -8 -204
0 -6 5 -22 25 -35 45 -23 33 -25 46 -24 130 1 51 2 105 3 121 2 30 22 36 42
12z m2936 -120 l-1 -135 -29 -27 c-31 -28 -48 -32 -168 -33 -56 -1 -84 3 -100
14 -18 13 -19 16 -6 16 11 0 15 5 12 15 -4 8 -2 15 4 15 6 0 50 38 98 85 49
47 92 85 96 85 5 0 8 6 8 13 0 8 9 22 20 32 11 10 20 24 20 32 0 8 4 12 9 8 5
-3 12 -1 16 5 17 28 23 -2 21 -125z m1643 2 c0 -47 -3 -89 -9 -92 -5 -3 -7
-14 -5 -25 2 -11 0 -20 -6 -20 -5 0 -14 -11 -21 -24 -11 -26 -22 -28 -195 -40
-50 -4 -61 -2 -56 10 3 8 9 12 13 9 5 -3 6 4 3 15 -3 11 -9 17 -14 14 -5 -3
-6 1 -4 9 3 7 19 21 35 30 26 16 130 114 130 123 0 5 38 48 80 90 35 35 35 35
41 11 3 -13 7 -62 8 -110z m1667 -5 c-3 -177 -6 -181 -129 -191 -86 -6 -147 1
-147 19 0 6 5 10 11 10 5 0 7 5 4 10 -3 6 0 10 7 10 20 1 70 50 137 136 33 44
67 86 76 95 8 9 15 21 15 27 0 9 6 13 27 21 1 1 1 -61 -1 -137z m-4933 101 c3
-10 6 -64 7 -120 1 -99 1 -102 -29 -135 -29 -33 -29 -33 -135 -36 -93 -3 -106
-2 -106 13 0 10 -5 13 -12 9 -7 -4 -8 -3 -4 4 4 7 16 12 27 12 12 0 17 4 14
11 -7 10 30 49 47 49 4 0 7 4 6 9 -2 5 9 20 23 33 14 13 34 37 44 52 10 14 20
24 23 21 6 -6 50 52 58 77 7 23 31 23 37 1z m5259 -10 c10 -9 18 -21 18 -27 0
-20 111 -141 196 -214 15 -12 24 -26 20 -29 -7 -7 -155 -9 -200 -3 -16 3 -42
17 -57 32 -27 27 -28 31 -24 116 4 75 9 130 14 140 3 6 16 0 33 -15z m1314
-130 c-2 -32 -4 -66 -4 -75 -1 -9 -18 -29 -37 -44 -31 -23 -47 -27 -110 -29
-81 -3 -95 9 -54 43 12 9 31 28 43 41 12 13 42 45 68 72 26 26 55 60 64 75
l18 27 7 -26 c4 -14 6 -52 5 -84z m-4447 -48 c24 -25 48 -45 53 -45 5 0 6 -4
3 -10 -3 -5 -2 -10 3 -10 5 0 12 -9 15 -20 6 -23 10 -22 -137 -20 -60 0 -104
6 -112 13 -45 41 -64 63 -64 75 0 18 104 61 150 61 41 1 50 -3 89 -44z"/>
<path d="M2732 6808 c-27 -27 -8 -79 38 -103 37 -19 159 -20 205 -1 43 18 69
58 61 91 l-6 25 -143 0 c-98 0 -147 -4 -155 -12z"/>
<path d="M2857 6620 c-35 -40 -67 -131 -67 -186 0 -36 5 -50 26 -69 56 -52
134 -40 167 25 24 47 16 97 -30 180 -49 91 -58 95 -96 50z"/>
<path d="M1850 6803 c-27 -19 -25 -41 9 -94 36 -56 131 -149 131 -128 0 8 16
31 36 50 81 76 117 154 82 176 -24 14 -237 11 -258 -4z"/>
<path d="M515 6510 c-41 -13 -91 -67 -103 -113 -14 -52 -7 -69 27 -60 52 15
125 8 167 -16 39 -22 43 -22 73 -7 26 14 31 22 31 52 0 46 -25 99 -59 123 -32
23 -96 33 -136 21z"/>
<path d="M980 6509 c-36 -15 -70 -49 -86 -88 -21 -50 -18 -78 11 -97 27 -18
53 -16 149 11 45 13 65 14 83 6 47 -22 56 -15 50 35 -8 77 -64 134 -138 140
-24 2 -55 -1 -69 -7z"/>
<path d="M368 6169 c-28 -16 -21 -54 24 -142 76 -148 187 -232 340 -257 124
-21 263 19 354 102 68 63 104 115 138 197 28 68 23 101 -14 101 -18 0 -109
-38 -120 -51 -15 -16 -167 -51 -243 -56 -156 -10 -253 14 -457 114 -3 1 -13
-2 -22 -8z"/>
<path d="M439 4881 c-36 -36 -39 -42 -39 -97 0 -90 44 -143 118 -144 76 0 132
60 132 143 0 89 -46 137 -131 137 -35 0 -48 -6 -80 -39z"/>
<path d="M972 4886 c-36 -34 -37 -36 -37 -106 0 -70 1 -72 37 -106 30 -27 46
-34 78 -34 57 0 96 23 121 72 35 69 11 159 -54 195 -12 7 -41 12 -65 13 -35 0
-49 -6 -80 -34z"/>
<path d="M365 4374 c-42 -43 47 -216 154 -297 176 -134 470 -107 617 57 50 54
73 95 98 170 27 78 -3 96 -91 52 -104 -52 -172 -68 -307 -74 -168 -6 -224 5
-372 75 -83 38 -78 38 -99 17z"/>
<path d="M2110 4908 c-49 -34 -61 -62 -57 -137 3 -57 6 -67 35 -92 61 -55 158
-32 193 44 22 50 24 86 5 130 -31 73 -112 99 -176 55z"/>
<path d="M2644 4920 c-31 -12 -65 -65 -71 -109 -11 -84 35 -150 111 -158 139
-16 201 174 83 255 -34 23 -84 28 -123 12z"/>
<path d="M2021 4391 c-18 -18 -19 -24 -6 -70 28 -109 125 -226 226 -274 173
-81 357 -49 495 88 94 93 156 240 112 268 -13 9 -36 2 -105 -31 -106 -50 -182
-70 -286 -76 -97 -5 -221 21 -307 64 -100 50 -108 52 -129 31z"/>
<path d="M3725 4862 c-74 -25 -138 -66 -195 -123 -44 -44 -50 -55 -50 -93 0
-30 6 -48 19 -60 18 -17 22 -16 77 21 52 34 64 38 135 42 71 3 83 0 124 -24
57 -33 80 -28 71 18 -7 39 -49 75 -96 83 -63 12 -65 19 -9 42 28 12 57 22 64
22 7 0 18 6 24 14 18 21 -1 51 -40 65 -43 15 -65 14 -124 -7z"/>
<path d="M4218 4865 c-31 -18 -50 -46 -40 -62 4 -5 25 -13 47 -17 58 -10 105
-26 105 -36 0 -9 -14 -14 -67 -25 -43 -9 -93 -56 -93 -88 0 -37 22 -39 92 -10
43 19 82 27 124 27 53 1 68 -4 121 -36 34 -21 65 -38 70 -38 20 0 43 38 43 71
0 28 -10 43 -65 96 -111 106 -264 160 -337 118z"/>
<path d="M3634 4486 c-9 -35 21 -139 63 -219 47 -88 127 -168 213 -210 130
-64 255 -37 386 85 80 75 155 214 162 303 6 77 -7 79 -124 21 -118 -59 -211
-80 -320 -72 -94 7 -209 42 -283 85 -63 38 -89 39 -97 7z"/>
<path d="M5322 4915 c-112 -49 -172 -151 -173 -297 -1 -141 76 -251 372 -523
l169 -157 229 228 c185 185 235 241 259 290 83 166 53 345 -72 430 -66 45
-179 54 -245 19 -37 -19 -44 -51 -8 -40 88 27 184 11 246 -41 78 -66 96 -225
38 -339 -21 -43 -314 -342 -402 -412 l-53 -43 -99 87 c-290 257 -384 379 -386
500 -4 175 102 275 274 259 54 -5 69 -3 69 7 0 40 -149 62 -218 32z"/>
<path d="M8672 4894 c-54 -19 -77 -38 -109 -92 -45 -76 -6 -98 58 -33 86 90
205 76 259 -30 24 -46 56 -53 66 -14 3 14 4 35 0 48 -8 33 -75 97 -124 118
-52 23 -92 23 -150 3z"/>
<path d="M9235 4903 c-77 -17 -137 -59 -165 -118 -17 -35 -19 -48 -10 -64 16
-31 37 -25 64 18 67 106 166 119 257 34 50 -47 79 -52 79 -13 0 86 -125 165
-225 143z"/>
<path d="M8549 4581 c-22 -17 -24 -27 -24 -98 0 -145 80 -298 198 -379 146
-101 353 -111 512 -26 135 73 244 241 253 390 4 68 1 80 -18 105 -31 39 -65
35 -124 -13 -132 -109 -323 -145 -503 -94 -57 16 -97 37 -182 96 -62 43 -79
46 -112 19z"/>
<path d="M7744 4557 c-67 -46 -183 -88 -279 -103 -91 -14 -249 -11 -333 6 -61
13 -155 56 -207 96 -54 41 -103 26 -118 -36 -9 -36 19 -144 55 -214 98 -185
336 -308 538 -277 224 34 432 241 465 463 6 42 4 50 -18 72 -34 34 -45 33
-103 -7z"/>
<path d="M5075 3955 c-31 -30 -34 -92 -6 -126 17 -22 21 -22 45 -10 30 17 41
9 41 -27 0 -21 6 -28 23 -30 57 -8 112 44 112 106 0 52 -89 112 -168 112 -13
0 -34 -11 -47 -25z"/>
<path d="M6206 3973 c-75 -19 -136 -97 -118 -151 19 -61 132 -83 132 -27 0 26
26 35 46 15 19 -19 47 26 49 77 3 72 -37 104 -109 86z"/>
<path d="M573 3210 c-127 -57 -232 -233 -162 -271 53 -28 210 65 269 159 37
58 38 85 4 111 -33 26 -57 26 -111 1z"/>
<path d="M928 3214 c-57 -31 -43 -90 40 -171 96 -92 188 -135 226 -104 62 51
-26 201 -158 266 -57 29 -71 30 -108 9z"/>
<path d="M5281 3127 c-22 -22 -10 -45 40 -83 61 -46 100 -114 107 -185 4 -43
7 -49 27 -49 33 0 50 27 48 76 -2 62 -39 128 -104 189 -58 53 -99 71 -118 52z"/>
<path d="M5999 3103 c-57 -49 -88 -86 -117 -137 -40 -71 -16 -174 38 -164 11
2 17 22 22 66 8 75 28 110 102 181 60 56 62 61 44 79 -20 20 -42 14 -89 -25z"/>
<path d="M5177 2788 c-24 -13 -22 -65 8 -175 60 -227 180 -360 374 -417 108
-32 266 -14 361 42 142 82 228 221 266 432 15 81 15 93 2 107 -14 13 -26 9
-114 -35 -149 -73 -202 -86 -379 -86 -91 -1 -173 5 -209 13 -59 13 -187 68
-236 101 -37 25 -54 29 -73 18z"/>
<path d="M8540 2998 c-60 -31 -87 -69 -74 -105 13 -38 48 -42 70 -8 20 30 83
65 116 65 49 -1 102 -30 141 -75 31 -36 45 -45 66 -43 42 5 39 40 -9 92 -86
93 -213 123 -310 74z"/>
<path d="M9239 2987 c-70 -36 -112 -86 -107 -127 5 -44 40 -37 83 16 74 90
161 97 246 17 l48 -44 20 20 c23 23 20 40 -15 87 -54 73 -169 86 -275 31z"/>
<path d="M8491 2727 c-15 -15 -14 -44 5 -108 57 -196 215 -359 387 -399 61
-14 197 -12 248 3 138 42 247 131 312 254 34 65 77 197 77 236 0 31 -30 31
-108 -1 -81 -33 -164 -58 -222 -67 -19 -3 -47 -8 -62 -11 -33 -7 -232 -7 -273
-1 -100 16 -168 34 -230 59 -102 43 -121 48 -134 35z"/>
<path d="M3746 3075 c-93 -33 -166 -133 -166 -227 0 -115 90 -169 197 -117 77
37 142 144 143 235 0 63 -25 99 -78 114 -46 12 -48 12 -96 -5z"/>
<path d="M4229 3075 c-63 -34 -77 -120 -35 -210 56 -121 165 -177 254 -131 66
34 83 133 35 215 -64 111 -178 168 -254 126z"/>
<path d="M3990 2483 c-47 -53 -90 -150 -90 -201 0 -36 4 -44 26 -52 19 -8 36
-5 70 11 46 21 71 19 109 -7 49 -34 102 0 91 59 -8 43 -72 176 -98 205 -32 34
-70 29 -108 -15z"/>
<path d="M2179 2661 c-62 -62 -22 -181 61 -181 23 0 42 10 66 34 28 28 34 41
34 79 0 61 -33 97 -90 97 -33 0 -48 -6 -71 -29z"/>
<path d="M2664 2447 c-2 -7 -3 -94 -2 -192 l3 -180 24 -3 c13 -2 28 1 33 6 12
12 18 342 6 365 -10 20 -56 23 -64 4z"/>
<path d="M1891 2371 c-78 -78 -78 -219 -2 -251 44 -18 101 11 119 62 12 31 12
44 -3 94 -16 54 -60 114 -84 114 -6 0 -20 -9 -30 -19z"/>
<path d="M2185 2354 c-13 -13 -16 -37 -14 -128 1 -61 5 -121 10 -133 9 -25 40
-30 57 -10 16 19 18 253 2 272 -16 19 -34 19 -55 -1z"/>
<path d="M2454 2343 c-30 -6 -54 -54 -54 -108 0 -60 40 -105 92 -105 50 0 78
34 85 103 5 52 4 58 -25 86 -29 30 -47 34 -98 24z"/>
<path d="M7624 3230 c-29 -12 -54 -49 -54 -81 0 -40 42 -79 85 -79 45 0 95 45
95 85 0 34 -50 85 -82 84 -13 0 -33 -4 -44 -9z"/>
<path d="M6780 3205 c-53 -28 -64 -102 -23 -147 12 -13 16 -34 14 -78 -2 -66
7 -78 54 -66 23 6 25 11 25 62 0 45 5 62 25 86 35 42 34 91 -4 129 -32 32 -53
35 -91 14z"/>
<path d="M7874 3189 c-3 -6 -7 -253 -8 -550 -1 -500 0 -540 17 -556 15 -15 19
-15 32 -3 12 13 14 96 15 555 1 297 1 546 0 553 0 15 -46 16 -56 1z"/>
<path d="M7133 3164 c-28 -28 -28 -65 -1 -121 19 -40 52 -52 166 -59 85 -6
105 -4 126 10 35 22 56 66 59 122 3 67 -13 74 -186 74 -135 0 -138 -1 -164
-26z"/>
<path d="M7330 2869 c-109 -10 -153 -47 -136 -114 4 -16 16 -27 34 -32 15 -5
128 -8 252 -8 199 0 229 2 253 18 52 34 21 121 -46 131 -53 8 -287 12 -357 5z"/>
<path d="M6782 2860 c-31 -13 -45 -55 -38 -115 8 -74 54 -105 101 -69 16 12
20 29 23 88 4 68 2 75 -19 90 -26 18 -34 19 -67 6z"/>
<path d="M7419 2539 c-95 -10 -199 -63 -199 -101 0 -6 -3 -8 -7 -5 -11 11 -43
-45 -43 -75 0 -38 35 -37 94 3 74 49 125 62 229 57 96 -4 142 -21 215 -75 44
-33 66 -27 70 19 3 32 -3 44 -38 82 -67 73 -188 108 -321 95z"/>
<path d="M7405 2299 c3 -3 -25 -7 -62 -8 -45 -1 -75 -7 -93 -19 -24 -17 -22
-17 97 -20 67 -1 179 -1 250 0 126 3 128 3 102 21 -21 14 -50 18 -152 19 -69
1 -121 6 -114 10 7 4 3 6 -10 5 -12 0 -20 -4 -18 -8z"/>
<path d="M6752 2270 c-13 -21 -16 -101 -6 -163 5 -29 12 -39 31 -43 39 -10 50
12 56 114 4 82 2 94 -14 102 -28 16 -53 12 -67 -10z"/>
<path d="M3650 1222 c-104 -111 -25 -288 113 -251 85 23 133 114 103 194 -25
64 -56 88 -121 93 -54 4 -57 4 -95 -36z"/>
<path d="M4280 1247 c-42 -21 -70 -74 -70 -131 0 -89 54 -149 134 -149 84 0
142 72 134 165 -10 96 -115 157 -198 115z"/>
<path d="M3612 834 c-27 -19 -29 -60 -6 -147 35 -137 111 -241 214 -296 68
-36 189 -63 252 -55 222 26 354 145 417 378 20 72 20 81 6 102 -23 35 -55 30
-143 -21 -109 -63 -217 -89 -342 -82 -112 7 -182 29 -290 92 -42 25 -79 45
-81 45 -3 0 -15 -7 -27 -16z"/>
<path d="M5325 1361 c-74 -34 -125 -111 -125 -188 0 -50 39 -132 79 -166 69
-58 150 -59 223 -4 108 82 126 241 36 324 -56 53 -143 67 -213 34z"/>
<path d="M5896 1365 c-139 -49 -166 -236 -49 -347 95 -90 255 -51 308 74 45
108 -15 232 -131 272 -57 19 -77 19 -128 1z"/>
<path d="M5209 724 c-28 -34 46 -180 130 -257 154 -138 402 -167 594 -71 105
53 229 215 231 303 1 35 0 36 -32 33 -18 -1 -59 -13 -90 -26 -116 -48 -340
-69 -492 -46 -78 12 -237 48 -265 60 -44 19 -62 20 -76 4z"/>
<path d="M6986 1015 c-77 -27 -136 -106 -136 -184 0 -62 17 -72 92 -54 40 9
112 14 196 14 l132 0 0 25 c0 59 -67 156 -132 190 -38 20 -107 24 -152 9z"/>
<path d="M7522 1003 c-71 -34 -122 -109 -122 -177 l0 -34 158 -6 c86 -3 175
-7 197 -8 34 -3 40 0 49 23 21 60 -26 150 -102 196 -45 28 -131 31 -180 6z"/>
<path d="M6911 608 c-19 -17 -22 -28 -18 -61 7 -52 53 -117 97 -139 31 -16 70
-18 343 -18 249 0 313 3 336 14 36 19 89 79 97 111 9 37 -4 92 -24 100 -9 5
-195 9 -413 11 -392 4 -396 3 -418 -18z"/>
<path d="M9153 1379 c-38 -11 -78 -57 -93 -107 -18 -57 -25 -178 -11 -186 6
-4 32 6 58 23 34 23 58 31 90 31 45 0 109 -26 132 -54 25 -30 91 -15 91 20 0
7 -15 18 -34 24 -33 10 -35 14 -42 68 -11 92 -53 157 -117 181 -32 12 -31 12
-74 0z"/>
<path d="M8770 1373 c-51 -19 -87 -79 -96 -160 -8 -68 -14 -79 -54 -87 -33 -6
-39 -26 -14 -50 23 -23 40 -20 91 19 73 56 152 60 216 11 61 -47 65 -37 46
101 -12 87 -37 136 -79 158 -29 15 -81 19 -110 8z"/>
<path d="M8614 927 c-58 -67 -78 -120 -79 -207 0 -68 4 -84 38 -152 65 -132
179 -214 339 -245 73 -13 90 -13 176 1 125 21 204 61 277 137 80 83 109 153
109 254 0 68 -4 88 -28 135 -65 129 -129 154 -203 78 -45 -47 -85 -119 -103
-188 -37 -140 -111 -193 -197 -140 -27 16 -36 32 -59 107 -34 112 -64 172
-111 221 -32 32 -45 39 -80 40 -37 2 -45 -3 -79 -41z m154 -92 c27 -34 37 -97
21 -123 -29 -46 -112 -57 -146 -19 -33 35 -36 62 -14 112 14 33 29 49 53 59
37 16 56 10 86 -29z m583 24 c24 -24 49 -79 49 -108 0 -75 -84 -117 -143 -71
-48 38 -43 116 11 173 31 32 55 34 83 6z"/>
<path d="M2078 1204 c-55 -29 -81 -125 -51 -184 23 -44 76 -80 118 -80 40 0
95 36 114 75 21 42 16 110 -10 146 -40 56 -114 75 -171 43z"/>
<path d="M2685 1213 c-65 -17 -101 -80 -92 -161 7 -64 58 -112 118 -112 79 0
131 55 132 139 1 100 -66 157 -158 134z"/>
<path d="M1273 1540 c-35 -15 -43 -16 -67 -3 -43 22 -106 -7 -106 -50 0 -33
37 -98 88 -156 l48 -54 56 68 c80 95 93 168 39 202 -14 9 -27 7 -58 -7z"/>
<path d="M1053 1173 c-11 -29 11 -33 172 -33 90 0 170 3 179 6 9 3 16 15 16
25 0 18 -9 19 -181 17 -132 -2 -183 -6 -186 -15z"/>
<path d="M4006 6992 c-2 -1 -139 -3 -304 -3 l-301 0 -26 -27 c-15 -15 -31 -38
-37 -51 -12 -33 -9 -1358 4 -1386 5 -12 24 -30 41 -41 31 -18 59 -19 668 -19
693 0 676 -1 700 57 9 21 12 201 13 691 1 644 0 663 -19 702 -33 65 -52 70
-285 73 -113 1 -261 3 -328 5 -68 1 -125 1 -126 -1z m591 -115 c28 -3 57 -9
65 -13 7 -5 16 -9 20 -9 5 0 18 -18 29 -40 18 -33 23 -64 28 -175 3 -74 4
-153 1 -175 l-5 -40 -17 69 c-17 64 -54 152 -69 162 -4 2 5 -24 19 -59 23 -53
26 -76 26 -161 0 -67 -4 -101 -12 -104 -7 -2 -12 -10 -12 -18 0 -19 -65 -148
-103 -203 -38 -56 -364 -381 -381 -381 -3 0 -20 -15 -38 -33 -65 -66 -74 -69
-127 -40 -25 14 -54 33 -63 42 -28 27 -47 41 -53 41 -4 0 -12 6 -20 13 -332
312 -362 346 -421 472 -46 95 -62 231 -38 322 36 137 127 227 258 253 39 7 39
8 9 9 -18 1 -56 -10 -85 -23 -123 -55 -209 -199 -234 -391 l-8 -60 -7 85 c-4
47 -6 110 -3 140 2 30 6 88 9 129 7 110 48 166 131 178 45 7 373 8 577 2 75
-2 137 -2 137 1 0 3 55 6 122 8 68 2 124 5 126 6 3 3 24 2 139 -7z m-1217
-769 c0 -6 3 -8 7 -4 7 6 43 -58 43 -76 0 -12 77 -114 123 -162 22 -23 67 -72
100 -110 34 -38 70 -77 79 -86 9 -10 14 -21 11 -24 -4 -3 -1 -6 5 -6 12 0 84
-74 91 -94 2 -6 10 -17 18 -24 7 -7 13 -17 13 -22 0 -11 -103 -17 -282 -16
l-157 1 -29 33 c-17 18 -33 49 -37 68 -3 19 -5 139 -5 267 1 127 1 240 1 250
0 9 4 17 10 17 5 0 9 -5 9 -12z m1355 -303 c-1 -121 -7 -231 -13 -245 -16 -40
-50 -70 -80 -71 -15 0 -99 -3 -187 -5 -187 -5 -225 -1 -225 26 0 10 3 20 8 22
4 2 41 41 82 88 41 47 103 113 137 147 35 35 63 67 63 71 0 5 18 24 40 42 22
18 40 39 40 45 0 6 9 17 20 25 11 8 20 19 20 25 0 6 8 20 18 31 10 10 29 35
42 54 l24 34 7 -34 c4 -19 6 -134 4 -255z"/>
<path d="M3458 5754 c-29 -33 -33 -88 -9 -136 11 -24 30 -49 42 -56 26 -17
118 -19 147 -3 51 27 31 136 -33 180 -48 32 -124 40 -147 15z"/>
<path d="M4535 5765 c-83 -29 -137 -126 -101 -180 43 -66 169 -57 207 15 26
48 25 124 -1 150 -11 11 -24 20 -29 20 -5 0 -15 2 -23 5 -7 2 -31 -2 -53 -10z"/>
</g>
</svg>
