<?xml version="1.0" encoding="UTF-8"?>
<!DOCTYPE svg PUBLIC "-//W3C//DTD SVG 1.1//EN" "http://www.w3.org/Graphics/SVG/1.1/DTD/svg11.dtd">
<svg xmlns="http://www.w3.org/2000/svg" version="1.1" width="100px" height="100px" style="shape-rendering:geometricPrecision; text-rendering:geometricPrecision; image-rendering:optimizeQuality; fill-rule:evenodd; clip-rule:evenodd" xmlns:xlink="http://www.w3.org/1999/xlink">
<g><path style="opacity:0.99" fill="#000000" d="M 3.5,17.5 C 34.1667,17.5 64.8333,17.5 95.5,17.5C 95.5,18.8333 95.5,20.1667 95.5,21.5C 64.8333,21.5 34.1667,21.5 3.5,21.5C 3.5,20.1667 3.5,18.8333 3.5,17.5 Z"/></g>
<g><path style="opacity:0.99" fill="#000000" d="M 3.5,47.5 C 34.1667,47.5 64.8333,47.5 95.5,47.5C 95.5,48.8333 95.5,50.1667 95.5,51.5C 64.8333,51.5 34.1667,51.5 3.5,51.5C 3.5,50.1667 3.5,48.8333 3.5,47.5 Z"/></g>
<g><path style="opacity:0.99" fill="#000000" d="M 3.5,77.5 C 34.1667,77.5 64.8333,77.5 95.5,77.5C 95.5,78.8333 95.5,80.1667 95.5,81.5C 64.8333,81.5 34.1667,81.5 3.5,81.5C 3.5,80.1667 3.5,78.8333 3.5,77.5 Z"/></g>
</svg>
